<?xml version="1.0" encoding="UTF-8"?>
<svg xmlns="http://www.w3.org/2000/svg" version="1.1" viewBox="0 0 600 600">
  <!-- Generator: Adobe Illustrator 29.0.1, SVG Export Plug-In . SVG Version: 2.1.0 Build 192)  -->
  <defs>
    <style>
      .st0 {
        fill: #231f20;
      }

      .st1 {
        fill: #fff;
      }

      .st2 {
        fill: #82c88a;
      }

      .st3 {
        fill: #77c47e;
      }

      .st4 {
        fill: none;
        stroke: #231f20;
        stroke-linecap: round;
        stroke-miterlimit: 10;
        stroke-width: 6px;
      }

      .st5 {
        fill: #9dcf79;
      }

      .st6 {
        display: none;
      }

      .st7 {
        fill: #79c47b;
      }

      .st8 {
        fill: #88bae5;
      }

      .st9 {
        fill: #83c881;
      }
    </style>
  </defs>
  <g id="Layer_1">
    <path class="st0" d="M122.45-85.16c1.93,0,1.93-3,0-3s-1.93,3,0,3h0Z"/>
    <g>
      <path class="st5" d="M302.76,148.73c-.2.5-.4,1-.61,1.5-.83,2.27-.92,4.68-.28,6.99,0,0,0,0,.01,0,.21-.17.4-.44.55-.69.43-.75.53-1.63.72-2.46.39-1.77.77-3.54,1.16-5.31-.52,0-1.04,0-1.56-.01Z"/>
      <path class="st9" d="M312.02,158.98c1.11-.74,1.61-2.21,2.05-3.4.57-1.53,1.05-3.11,1.7-4.6.42-.95,1.05-1.83,2.16-1.94.65-.06,1.15.25,1.75.44.84.26,1.23-.06,1.71-.77.84-1.24,1.32-2.83,1.73-4.26.88-3.11,1.1-6.38.64-9.58-.18-.68-.38-1.36-.53-2.05-.26-1.18.56-2.51.72-3.72.22-1.7.05-3.45-.46-5.09-.24-.75-.51-2.12-1.49-2.1-.68.01-1.47.73-1.96,1.13-4.29,3.57-5.43,9.69-6.61,14.84-.76,3.34-1.46,6.7-2.13,10.06-.34,1.68-.66,3.36-.99,5.05-.31,1.58-.9,3.36-.91,4.97-.01,1.48,1.57,1.7,2.62,1Z"/>
      <path class="st3" d="M452.79,339.48c-.09-.43-.19-.87-.33-1.3-.02-.05-.05-.12-.07-.19-.29-.12-.52-.39-.61-.71-.02-.04-.03-.09-.04-.14,0-.04,0-.08,0-.12,0-.08-.03-.16-.02-.25.25-1.79.54-3.58.74-5.37.71-6.22,1.52-12.36,3.61-18.3,2.03-5.78,4.85-11.27,7.49-16.79-2.81-1.87-6.07-2.74-9.43-3.1-7.38-.81-15.35.35-22.24-3.01-1.77-.86-3.23-2.09-4.72-3.36-1.9-1.62-3.88-2.39-6.36-2.62-4.07-.39-7.91-.71-11.83-1.97-7.47-2.41-14.22-6.5-21.34-9.71-6.78-3.05-14.28-5.26-21.63-2.96-7,2.19-12.51,7.51-18.52,11.48-2.8,1.85-5.82,3.53-9.1,4.34-3.72.92-7.32.45-10.91-.78-3.83-1.32-7.48-2.71-11.58-1.88-3.19.65-6.08,2.21-8.79,3.95-5.57,3.59-10.59,8.21-16.86,10.58-3.55,1.34-7.05,1.43-10.77.91-2.46-.34-5.03-.84-7.48-.24-1.99.49-3.66,1.66-5.06,3.13-2.88,3.05-4.69,7.08-6.62,10.76-2.3,4.4-4.52,8.86-6.22,13.52-3.25,8.9-4.2,18.43-2.42,27.76.87,4.58,2.34,9.05,4.42,13.23.99,2,2.07,4.09,3.59,5.74,1.57,1.7,3.54,2.46,5.72,3.05,1.96.53,4,.99,5.76,2.05,1.69,1.02,3,2.5,4.15,4.09,2.21,3.08,3.87,6.45,7.12,8.6,5.57,3.69,13.34,3.85,19.12.53,1.44-.83,2.73-1.86,3.84-3.1,1.28-1.43,2.15-3.21,3.62-4.47,3.41-2.93,8.28-1.13,12.1-.11,8.11,2.16,16.87,5.86,19.75,14.49,1.39,4.18.35,7.93-1.44,11.79-2.07,4.45-3.02,8.98-2.74,13.9.56,9.75,5.13,18.56,9.49,27.09,4.05,7.93,8.09,16.12,8.83,25.12.55,6.79-.79,13.92-4.96,19.36,8-1.27,15.96-2.81,23.85-4.68,3.93-.93,8.05-1.73,11.79-3.33,3.44-1.47,5.94-3.82,7.49-7.23,2.54-5.6,3.09-11.91,8.33-15.88,3.03-2.3,6.61-3.97,9.92-5.82,3.52-1.97,7.08-3.88,10.55-5.92,6.14-3.61,11.13-8.47,13.88-15.14,1.36-3.32,2.02-6.81,2.22-10.38.22-3.97.01-7.95.41-11.91.74-7.39,4.33-13.65,7.7-20.12,3.41-6.55,5.91-13.49,7.35-20.74,1.44-7.22,1.81-14.65,1.14-21.98-.27-2.9-.79-5.75-1.25-8.62-.17-1.08-.35-2.16-.58-3.23Z"/>
      <path class="st5" d="M317.84,114.36s.03-.12.04-.13c0-.06,0-.15,0-.16,0,0,0-.01,0-.02,0,0,0-.01-.01-.02-.03-.03-.05-.05-.06-.06,0,0,0,0,0,0-.05-.01-.1-.05-.14-.08,0,0,0,0,0,0,.02.01.04.03.05.03.03.01.03.02,0,0-.02,0-.04-.02-.06-.02-.39.55-1.13.58-1.56.09-.34.88-.63,1.78-.87,2.7.15-.1.31-.19.46-.29.66-.45,1.35-.92,1.87-1.54.02-.03.03-.04.04-.04.01-.02.03-.04.04-.06.06-.09.12-.18.17-.28l.05-.1c-.03.06-.03.06,0,0Z"/>
      <path class="st8" d="M317.56,113.87s0,0,0,0c0,0,0,0,0,0Z"/>
      <path class="st5" d="M300.35,141.5c2.11-1.37,4.45-3,5.92-5.08,1.32-1.87,1.97-4.73.19-6.54-.84-.85-1.51-1.61-1.35-2.89.04-.29.64-1.67.7-2.41-.54.49-1.08.99-1.63,1.48-.03.03-.07.04-.1.06-.03.03-.06.07-.1.1-5.47,4.2-9.19,10.37-10.53,17.11,2.36.8,4.92-.54,6.9-1.83Z"/>
      <path class="st9" d="M238.29,434.91c-.24-5.67-1.1-11.32-3.34-16.57-1.88-4.42-4.59-8.47-7.76-12.08-6.59-7.52-14.91-13.28-23.3-18.59-5.05-3.2-10.1-6.48-15.27-9.46-.92-.53-2.01-.46-2.97-.99-.85-.47-1.55-1.19-2.15-1.95-1.53-1.94-2.48-4.27-3.77-6.36-2.76-4.48-6.25-8.53-10.38-11.81-4.43-3.52-9.54-5.83-14.84-7.72-5.28-1.88-10.68-3.48-15.75-5.92-4.18-2.02-8.06-4.59-11.72-7.44-14.83-11.51-26.3-28.27-44.31-35.22-.05-.02-.07-.05-.12-.07.35,108.8,81.04,199.03,185.74,214.37-.76-.58-1.55-1.11-2.36-1.62-7.83-4.82-17.1-7.15-23.21-14.43-3.1-3.7-5.55-8.38-5.39-13.33.08-2.43.87-4.6,1.97-6.74.65-1.26,1.36-2.5,1.71-3.88.41-1.65.21-3.34-.16-4.98-.64-2.87-1.5-5.65-1.92-8.57-.42-2.93-.61-5.88-.67-8.84-.13-5.93.22-11.85-.03-17.78Z"/>
      <path class="st7" d="M400.72,158.38c-3.53,1.77-7.28,3.21-11.25,3.58-3.98.38-7.72-.72-11.49-1.83-3.73-1.09-7.49-1.91-11.32-.75-3.42,1.04-6.36,3.25-8.95,5.64-2.93,2.7-5.58,5.71-8.3,8.62-2.81,3.01-5.73,5.95-8.33,9.14-2.28,2.81-4.37,6-5.09,9.59-.73,3.66.42,7.12,2.26,10.27,1.78,3.04,4.06,5.79,5.62,8.96,1.2,2.42,1.77,5.21,1.59,7.91-.16,2.41-.94,4.96-2.8,6.61-2.3,2.05-5.35,2.06-8.18,1.31-3.05-.81-6.53-2.62-9.64-1.08-2.45,1.21-3.44,3.98-3.85,6.5-.51,3.11-.17,6.25.26,9.34.58,4.29,1.17,8.58,1.75,12.87,8.69.45,17.36-2.59,23.81-8.45.03-.03.06-.03.09-.06.02-.05.03-.1.07-.15.94-1.24,1.99-2.37,3.21-3.34,5.05-4.02,11.76-5.02,18.05-4.97,7.83.06,15.62,1.6,23.34,2.74,4.58.68,9.16,1.36,13.75,2.03,4.6.68,9.46,1.8,14.11.96,3.93-.71,7.57-2.42,11.56-2.92,3.35-.42,6.76-.25,10.07.43,6.63,1.38,12.9,4.91,17.3,10.08.55.65,1.06,1.33,1.57,2.01.53.72,1.16,1.62,2.08,1.85,1.21.3,2.45-.62,3.4-1.25.79-.53,1.56-1.08,2.32-1.65,3.16-2.38,6.05-5.15,8.59-8.19,2.54-3.03,5.46-6.68,6.21-10.65.81-4.26-2.29-7.39-3.92-10.99-1.22-2.7-1.76-6.33.36-8.74,2.11-2.39,5.7-2.05,8.16-.41,3.1,2.06,4.05,5.72,4.49,9.2.48,3.83.72,7.64,2.08,11.3,1.29,3.48,3.53,6.64,6.94,8.28,2.83,1.36,6.19,1.53,8.91-.04-12.82-46.38-40.66-86.59-77.94-115.03-.34.94-.71,1.87-1.12,2.79-5.68,12.74-17.52,22.34-29.78,28.49Z"/>
      <path class="st2" d="M264.57,85.51c-64.99,10.7-120.36,50.32-152.41,105.17.56-.26,1.12-.52,1.68-.78,14.95-6.83,30.26-12.88,45.85-18.12,3.92-1.32,7.85-2.58,11.8-3.79,3.77-1.16,7.65-2.43,11.65-2.32,3.82.1,7.33,1.61,10.8,3.08,3.53,1.5,7.13,2.7,10.9,3.38,7.4,1.34,15.3.78,22.24-2.22,6.02-2.6,11.18-7.1,14.52-12.75,1.63-2.76,2.79-5.77,3.38-8.91.7-3.76.31-7.53-.32-11.26-.62-3.64-1.37-7.25-1.34-10.95.03-3.3.53-6.6,1.38-9.79,3.19-11.87,10.87-22.41,19.89-30.75Z"/>
      <path class="st8" d="M506.86,244.88c-3.2.44-6.56-.57-9.14-2.48-2.84-2.1-4.69-5.23-5.82-8.52-1.27-3.67-1.48-7.46-1.97-11.27-.46-3.58-1.7-7.6-5.62-8.65-1.54-.41-3.21-.12-4.22,1.2-1.02,1.34-.97,3.19-.59,4.75.87,3.6,3.77,6.31,4.63,9.93.93,3.92-.92,7.65-3.05,10.84-2.18,3.26-4.72,6.3-7.56,9.01-1.38,1.32-2.84,2.57-4.35,3.73-1.52,1.17-3.14,2.5-4.93,3.24-3.91,1.6-5.71-2.59-7.91-4.94-4.73-5.07-11.36-8.33-18.25-9.13-3.41-.4-6.88-.2-10.21.65-2.06.53-4.06,1.28-6.11,1.83-2.08.55-4.21.81-6.36.75-4.5-.12-9.01-1.06-13.45-1.72-4.65-.69-9.3-1.38-13.96-2.06-7.39-1.09-14.85-2.51-22.35-2.17-6.42.29-13.14,2.08-17.18,7.42-.06.08-.13.13-.2.18-.04.13-.1.25-.23.37-6.95,6.31-16.38,9.61-25.76,8.91-.34-.03-.77-.24-.82-.63-.31-2.24-.61-4.49-.92-6.73-.52-3.83-1.26-7.7-1.45-11.56-.14-2.8.04-5.77,1.08-8.4.94-2.37,2.66-4.34,5.18-5.06,3.34-.95,6.59.67,9.76,1.48,2.91.74,5.95.4,7.56-2.39,1.33-2.31,1.37-5.27.82-7.81-1.42-6.6-7.51-11.07-9.05-17.68-1.72-7.37,3.07-13.86,7.75-19.02,2.92-3.23,5.94-6.39,8.91-9.57,2.53-2.71,5.06-5.45,8.01-7.73,2.69-2.09,5.77-3.82,9.18-4.35,3.79-.59,7.45.42,11.06,1.48,3.97,1.18,7.82,2.04,11.97,1.24,4.06-.78,7.83-2.59,11.41-4.6,11.82-6.64,22.9-16.33,27.48-29.39-36.32-27.24-81.4-43.4-130.19-43.4-10.8,0-21.41.8-31.79,2.33-.86.75-1.71,1.5-2.54,2.28-10.01,9.42-19.13,22.24-20.26,36.34-.29,3.66.15,7.19.79,10.79.67,3.78,1.38,7.61,1.08,11.47-.48,6.32-3.23,12.27-7.34,17.05-9.36,10.91-24.59,13.91-38.17,10.67-3.8-.91-7.3-2.45-10.91-3.91-3.89-1.57-7.67-2.38-11.85-1.6-4,.75-7.91,2.15-11.79,3.38-3.93,1.25-7.85,2.56-11.75,3.92-15.32,5.33-30.35,11.46-45.03,18.34-17.54,31.15-27.63,67.02-27.83,105.19.18-.08.39-.1.64,0,2.08.8,4.12,1.73,6.09,2.79,16.91,9.08,27.83,25.8,43.72,36.25,4.41,2.9,9.13,5.06,14.09,6.83,5.3,1.88,10.73,3.48,15.78,5.98,4.7,2.32,8.94,5.51,12.52,9.33,1.8,1.92,3.43,3.99,4.9,6.17,1.41,2.1,2.5,4.37,3.81,6.52.63,1.03,1.39,2.17,2.48,2.76.49.26.92.29,1.46.34.62.06.98.32,1.51.65,2.8,1.73,5.61,3.46,8.41,5.2,4.41,2.72,8.82,5.43,13.1,8.36,8.03,5.48,15.79,11.73,21.36,19.79,2.78,4.02,4.93,8.5,6.17,13.23,1.48,5.64,1.72,11.51,1.71,17.31-.01,5.92-.3,11.85.22,17.76.27,3.1.83,6.13,1.65,9.13.77,2.85,1.53,5.83.65,8.76-.75,2.48-2.41,4.56-3.1,7.05-.68,2.47-.46,5.06.33,7.47,1.53,4.7,5.07,8.97,9.09,11.79,3.72,2.6,7.98,4.35,12.04,6.34,3.77,1.85,7.72,3.84,10.64,6.92,9.2,1.19,18.57,1.81,28.09,1.81,119.87,0,217.39-97.52,217.39-217.39,0-19.41-2.57-38.23-7.37-56.15-.99.52-2.05.87-3.17,1.02ZM312.8,118.41c.43-2.6,1.27-5.11,2.46-7.46.1-.2.29-.33.5-.41.03-.01.06-.04.1-.05.19-.05.36-.03.52.02.09.02.18.04.25.08.2.12.32.29.4.48.02.04.05.07.06.11.09.24.18.48.27.72.39-.05.82.02,1.23.21,1.04.48,1.49,1.58,1.21,2.67-.31,1.21-1.35,2.04-2.31,2.75-1.01.76-2.09,1.43-3.22,2-.82.42-1.61-.27-1.47-1.13ZM312.27,134.08c.77-3.09,1.71-6.22,3.4-8.94,1.31-2.12,4.04-5.6,6.9-5.2,1.46.2,2.08,1.53,2.56,2.77.63,1.63.93,3.41.89,5.16-.02.92-.13,1.85-.33,2.74-.09.39-.16.84-.33,1.21,0,0-.26.54-.21.34,0,0-.04-.1-.05.03-.04.65.4,1.54.56,2.18.6,4.22.24,8.53-1.26,12.54-.57,1.53-1.25,3.42-2.72,4.32-.59.36-1.3.52-1.99.39-.39-.08-.76-.36-1.15-.42-.78-.12-.89.37-1.13.99-1.06,2.77-1.77,7.04-4.58,8.66-2.35,1.35-5.54.07-5.47-2.84.05-1.9.67-3.88,1.03-5.75.4-2.08.81-4.17,1.23-6.25.81-3.98,1.64-7.97,2.62-11.91ZM291.35,143.66c1.26-7.53,5.4-14.32,11.4-19,0,0,0-.01.01-.02.62-.57,1.24-1.13,1.87-1.7.21-.19.42-.44.67-.59.61-.39,1.36-.14,1.85.37.83.86.75,2.2.36,3.24-.14.39-.46.93-.45,1.36.02.45.3.66.59.95.48.46.91.96,1.21,1.56,1.32,2.62.56,5.73-1.14,7.97-1.85,2.43-4.63,4.44-7.25,5.97-2.65,1.56-5.77,2.52-8.66,1.02-.42-.22-.53-.71-.46-1.13ZM306.52,148.02c-.42,1.92-.84,3.85-1.26,5.77-.3,1.39-.48,2.9-1.32,4.1-.75,1.06-2.04,1.88-3.3,1.1-.66-.41-.8-1.51-.94-2.23-.15-.78-.24-1.58-.26-2.37-.03-1.59.24-3.19.79-4.69.3-.75.6-1.49.9-2.24.17-.41.48-.74.96-.73,1.15,0,2.31.02,3.46.03.68,0,1.1.63.96,1.27ZM453.89,336.5c1.05,1.42,1.12,3.88,1.39,5.56.46,2.87.99,5.72,1.28,8.61.77,7.65.37,15.41-1.11,22.95-1.47,7.49-4.08,14.67-7.6,21.43-1.77,3.4-3.7,6.75-5.16,10.31-1.57,3.83-2.31,7.75-2.47,11.88-.16,4.14.02,8.29-.54,12.41-.46,3.38-1.5,6.65-3.02,9.71-1.53,3.05-3.57,5.86-5.99,8.25-2.68,2.65-5.87,4.67-9.13,6.52-3.75,2.13-7.54,4.22-11.31,6.32-3.29,1.84-7.17,3.49-9.66,6.43-4.18,4.94-3.88,12.22-8.1,17.19-2.14,2.52-5.18,4.01-8.26,5.05-3.73,1.26-7.64,2.09-11.48,2.98-8.28,1.91-16.63,3.49-25.03,4.75-.93.14-1.74-.9-.97-1.67,2.82-2.81,4.64-6.34,5.57-10.19,4.51-18.66-10.19-34.33-15.5-51.03-1.42-4.46-2.33-9.17-2.19-13.87.06-2.23.36-4.48.94-6.64.6-2.25,1.61-4.31,2.56-6.42.96-2.12,1.61-4.29,1.38-6.64-.2-2.07-1.01-4.06-2.12-5.81-2.47-3.89-6.45-6.37-10.68-8-2.2-.85-4.48-1.5-6.76-2.09-2.14-.56-4.43-1.36-6.66-1.26-2.5.11-3.76,1.85-5.09,3.72-1.02,1.42-2.15,2.68-3.52,3.76-5.23,4.09-12.63,5.1-18.88,3.01-3.12-1.05-6-2.88-8.09-5.45-2.53-3.1-4.1-7.38-7.7-9.45-1.86-1.07-4.02-1.41-6.05-2.02-2.02-.6-3.88-1.49-5.38-3-3.04-3.06-4.92-7.57-6.41-11.55-3.18-8.48-4.11-17.75-2.77-26.7,1.45-9.72,5.94-18.57,10.5-27.16,1.88-3.54,3.79-7.33,6.93-9.93,3.43-2.85,7.37-3.02,11.62-2.42,2.26.32,4.51.68,6.8.44,1.63-.17,3.24-.63,4.77-1.23,3.09-1.21,5.89-3.09,8.59-5,5.28-3.72,10.65-8.36,17.21-9.51,3.94-.69,7.5.28,11.2,1.6,3.83,1.37,7.48,2.11,11.46.98,6.94-1.96,12.43-7.39,18.31-11.28,2.99-1.98,6.19-3.74,9.67-4.66,3.53-.93,7.2-.97,10.79-.36,7.59,1.3,14.47,5.24,21.28,8.61,3.58,1.77,7.2,3.47,11,4.69,1.86.6,3.77,1.09,5.7,1.4,2.13.34,4.29.33,6.42.59,2.13.26,4.06.88,5.79,2.18,1.69,1.27,3.13,2.76,5.02,3.75,3.39,1.79,7.31,2.22,11.08,2.43,7.35.4,15.59-.26,21.8,4.44.46.35.61.83.36,1.37-1.7,3.61-3.47,7.2-5.11,10.84-2.34,5.19-4.12,10.51-5.09,16.13-.74,4.28-1.15,8.61-1.71,12.92.04.05.09.09.13.14ZM487.21,365.41c-1.37,3.96-4.05,7.23-5.06,11.35-1,4.09-1.07,8.35-2.17,12.42-1.06,3.89-3.13,7.38-5.51,10.61-1.2,1.62-2.45,3.22-3.74,4.77-.97,1.17-2.24,2.4-3.87,2.34-3.37-.12-3.25-4.31-2.72-6.65,1.04-4.62,2.13-9.23,3.19-13.84,2.13-9.23,4.25-18.45,6.38-27.68.2-.85,1.13-.87,1.63-.41,2.34-4.09,3.99-8.49,4.92-13.11.16-.78,1.15-.91,1.67-.44,5.55,5.08,7.76,13.5,5.28,20.64Z"/>
      <path class="st9" d="M476.69,359.99c-.32.53-.87.57-1.3.35-2.06,8.95-4.13,17.9-6.19,26.84-.93,4.05-1.87,8.09-2.8,12.14-.33,1.43-.96,3.22-.43,4.68.71,1.98,2.59.05,3.35-.87,2.35-2.84,4.67-5.79,6.46-9.02,1.82-3.29,2.7-6.77,3.23-10.47.52-3.65.87-7.37,2.32-10.8,1.42-3.35,3.68-6.26,4.48-9.87,1.21-5.45-.37-11.32-4.02-15.48-1.06,4.39-2.78,8.6-5.1,12.49Z"/>
      <path d="M300,79.61c-58.87,0-114.22,22.93-155.84,64.55-41.63,41.63-64.55,96.97-64.55,155.84s22.93,114.22,64.55,155.84c41.63,41.63,96.97,64.55,155.84,64.55s114.22-22.92,155.84-64.55c41.63-41.63,64.55-96.97,64.55-155.84s-22.92-114.22-64.55-155.84c-41.62-41.62-96.98-64.55-155.84-64.55ZM300,517.39c-9.52,0-18.89-.62-28.09-1.81-2.93-3.08-6.88-5.08-10.64-6.92-4.06-1.99-8.32-3.74-12.04-6.34-4.03-2.82-7.56-7.08-9.09-11.79-.79-2.42-1.01-5.01-.33-7.47.69-2.5,2.35-4.58,3.1-7.05.88-2.92.13-5.9-.65-8.76-.81-3-1.38-6.03-1.65-9.13-.52-5.91-.23-11.84-.22-17.76.01-5.8-.23-11.67-1.71-17.31-1.24-4.73-3.39-9.21-6.17-13.23-5.57-8.06-13.33-14.31-21.36-19.79-4.28-2.92-8.69-5.63-13.1-8.36-2.8-1.73-5.61-3.46-8.41-5.2-.53-.33-.89-.59-1.51-.65-.54-.05-.97-.08-1.46-.34-1.09-.59-1.86-1.73-2.48-2.76-1.31-2.16-2.4-4.42-3.81-6.52-1.47-2.18-3.1-4.26-4.9-6.17-3.58-3.83-7.82-7.01-12.52-9.33-5.06-2.49-10.48-4.09-15.78-5.98-4.97-1.76-9.68-3.93-14.09-6.83-15.89-10.45-26.82-27.17-43.72-36.25-1.97-1.06-4-1.98-6.09-2.79-.25-.1-.46-.07-.64,0,.2-38.17,10.28-74.05,27.83-105.19,14.68-6.88,29.72-13.02,45.03-18.34,3.9-1.36,7.82-2.66,11.75-3.92,3.87-1.23,7.78-2.63,11.79-3.38,4.18-.78,7.96.02,11.85,1.6,3.6,1.46,7.11,3.01,10.91,3.91,13.58,3.24,28.81.25,38.17-10.67,4.1-4.79,6.85-10.73,7.34-17.05.3-3.86-.41-7.69-1.08-11.47-.64-3.6-1.08-7.13-.79-10.79,1.13-14.11,10.24-26.92,20.26-36.34.83-.78,1.68-1.54,2.54-2.28,10.38-1.53,20.99-2.33,31.79-2.33,48.79,0,93.87,16.16,130.19,43.4-4.59,13.06-15.66,22.75-27.48,29.39-3.58,2.01-7.35,3.82-11.41,4.6-4.15.8-8-.06-11.97-1.24-3.61-1.07-7.26-2.08-11.06-1.48-3.41.53-6.49,2.26-9.18,4.35-2.94,2.28-5.47,5.02-8.01,7.73-2.97,3.19-5.99,6.34-8.91,9.57-4.67,5.17-9.47,11.65-7.75,19.02,1.54,6.61,7.64,11.08,9.05,17.68.55,2.54.5,5.5-.82,7.81-1.61,2.8-4.65,3.14-7.56,2.39-3.18-.81-6.42-2.44-9.76-1.48-2.52.72-4.24,2.69-5.18,5.06-1.04,2.63-1.21,5.6-1.08,8.4.19,3.87.93,7.73,1.45,11.56.31,2.24.61,4.49.92,6.73.05.38.48.6.82.63,9.38.7,18.81-2.59,25.76-8.91.13-.11.19-.24.23-.37.07-.05.14-.1.2-.18,4.05-5.34,10.77-7.13,17.18-7.42,7.51-.34,14.96,1.08,22.35,2.17,4.65.69,9.3,1.38,13.96,2.06,4.44.66,8.96,1.6,13.45,1.72,2.16.06,4.28-.2,6.36-.75,2.06-.54,4.05-1.3,6.11-1.83,3.33-.85,6.8-1.05,10.21-.65,6.89.8,13.52,4.06,18.25,9.13,2.19,2.36,3.99,6.54,7.91,4.94,1.79-.73,3.41-2.06,4.93-3.24,1.52-1.17,2.97-2.41,4.35-3.73,2.84-2.72,5.38-5.75,7.56-9.01,2.13-3.18,3.98-6.92,3.05-10.84-.86-3.61-3.76-6.33-4.63-9.93-.38-1.56-.42-3.41.59-4.75,1-1.32,2.68-1.61,4.22-1.2,3.92,1.05,5.16,5.06,5.62,8.65.49,3.81.7,7.61,1.97,11.27,1.14,3.29,2.98,6.43,5.82,8.52,2.58,1.9,5.94,2.92,9.14,2.48,1.12-.15,2.19-.5,3.17-1.02,4.79,17.92,7.37,36.74,7.37,56.15,0,119.87-97.52,217.39-217.39,217.39ZM244.64,136.99c.64,3.74,1.02,7.51.32,11.26-.58,3.15-1.75,6.16-3.38,8.91-3.33,5.65-8.5,10.15-14.52,12.75-6.94,3-14.85,3.55-22.24,2.22-3.78-.68-7.38-1.89-10.9-3.38-3.47-1.47-6.98-2.98-10.8-3.08-3.99-.11-7.88,1.16-11.65,2.32-3.95,1.21-7.88,2.48-11.8,3.79-15.58,5.23-30.89,11.29-45.85,18.12-.56.26-1.12.52-1.68.78,32.05-54.85,87.41-94.47,152.41-105.17-9.02,8.34-16.7,18.88-19.89,30.75-.85,3.18-1.36,6.49-1.38,9.79-.03,3.71.72,7.32,1.34,10.95ZM238.33,452.69c.06,2.96.25,5.91.67,8.84.42,2.92,1.28,5.7,1.92,8.57.37,1.64.57,3.33.16,4.98-.35,1.38-1.06,2.63-1.71,3.88-1.1,2.14-1.89,4.31-1.97,6.74-.16,4.95,2.29,9.63,5.39,13.33,6.11,7.28,15.38,9.61,23.21,14.43.82.5,1.61,1.04,2.36,1.62-104.7-15.34-185.39-105.57-185.74-214.37.04.02.07.06.12.07,18.01,6.96,29.49,23.71,44.31,35.22,3.66,2.84,7.54,5.42,11.72,7.44,5.06,2.44,10.46,4.04,15.75,5.92,5.3,1.89,10.41,4.2,14.84,7.72,4.12,3.28,7.62,7.33,10.38,11.81,1.29,2.09,2.25,4.42,3.77,6.36.6.76,1.3,1.48,2.15,1.95.96.53,2.05.46,2.97.99,5.18,2.99,10.22,6.26,15.27,9.46,8.39,5.32,16.72,11.08,23.3,18.59,3.16,3.61,5.87,7.65,7.76,12.08,2.24,5.25,3.1,10.9,3.34,16.57.25,5.92-.09,11.85.03,17.78ZM509.56,242.14c-2.72,1.57-6.08,1.4-8.91.04-3.42-1.64-5.66-4.8-6.94-8.28-1.35-3.66-1.59-7.47-2.08-11.3-.44-3.49-1.39-7.14-4.49-9.2-2.46-1.64-6.05-1.98-8.16.41-2.13,2.41-1.58,6.04-.36,8.74,1.62,3.6,4.73,6.73,3.92,10.99-.76,3.97-3.68,7.62-6.21,10.65-2.54,3.03-5.43,5.8-8.59,8.19-.76.57-1.53,1.12-2.32,1.65-.95.63-2.19,1.55-3.4,1.25-.93-.23-1.55-1.13-2.08-1.85-.51-.68-1.02-1.36-1.57-2.01-4.4-5.17-10.67-8.7-17.3-10.08-3.31-.69-6.72-.86-10.07-.43-3.99.51-7.63,2.21-11.56,2.92-4.65.84-9.51-.28-14.11-.96-4.58-.68-9.16-1.36-13.75-2.03-7.72-1.14-15.51-2.69-23.34-2.74-6.29-.04-12.99.95-18.05,4.97-1.22.97-2.27,2.1-3.21,3.34-.04.05-.04.1-.07.15-.03.02-.06.03-.09.06-6.44,5.86-15.12,8.89-23.81,8.45-.58-4.29-1.17-8.58-1.75-12.87-.42-3.09-.76-6.23-.26-9.34.41-2.52,1.4-5.29,3.85-6.5,3.11-1.53,6.59.28,9.64,1.08,2.84.75,5.89.74,8.18-1.31,1.86-1.66,2.63-4.2,2.8-6.61.18-2.7-.39-5.48-1.59-7.91-1.56-3.16-3.84-5.92-5.62-8.96-1.84-3.15-2.99-6.6-2.26-10.27.72-3.6,2.81-6.78,5.09-9.59,2.6-3.19,5.52-6.13,8.33-9.14,2.72-2.91,5.37-5.92,8.3-8.62,2.59-2.39,5.53-4.6,8.95-5.64,3.83-1.16,7.58-.34,11.32.75,3.78,1.11,7.51,2.21,11.49,1.83,3.96-.37,7.71-1.81,11.25-3.58,12.26-6.14,24.09-15.75,29.78-28.49.41-.92.78-1.85,1.12-2.79,37.28,28.45,65.12,68.65,77.94,115.03Z"/>
      <path d="M460.56,307.31c1.64-3.64,3.41-7.23,5.11-10.84.25-.53.11-1.02-.36-1.37-6.21-4.69-14.45-4.04-21.8-4.44-3.77-.2-7.69-.64-11.08-2.43-1.89-.99-3.33-2.48-5.02-3.75-1.72-1.3-3.66-1.92-5.79-2.18-2.14-.27-4.3-.25-6.42-.59-1.93-.31-3.84-.8-5.7-1.4-3.8-1.23-7.43-2.92-11-4.69-6.81-3.37-13.7-7.31-21.28-8.61-3.59-.61-7.26-.58-10.79.36-3.48.92-6.69,2.68-9.67,4.66-5.89,3.89-11.37,9.32-18.31,11.28-3.98,1.12-7.64.38-11.46-.98-3.7-1.32-7.26-2.3-11.2-1.6-6.55,1.16-11.93,5.79-17.21,9.51-2.7,1.9-5.51,3.78-8.59,5-1.53.6-3.13,1.06-4.77,1.23-2.29.24-4.54-.12-6.8-.44-4.25-.6-8.19-.43-11.62,2.42-3.14,2.61-5.05,6.4-6.93,9.93-4.56,8.58-9.05,17.44-10.5,27.16-1.34,8.95-.4,18.22,2.77,26.7,1.49,3.98,3.36,8.49,6.41,11.55,1.5,1.51,3.36,2.4,5.38,3,2.03.61,4.2.95,6.05,2.02,3.6,2.07,5.18,6.35,7.7,9.45,2.09,2.57,4.97,4.4,8.09,5.45,6.25,2.1,13.65,1.09,18.88-3.01,1.38-1.08,2.51-2.34,3.52-3.76,1.34-1.86,2.6-3.6,5.09-3.72,2.23-.1,4.53.7,6.66,1.26,2.28.6,4.55,1.25,6.76,2.09,4.23,1.62,8.21,4.11,10.68,8,1.11,1.75,1.93,3.74,2.12,5.81.23,2.35-.42,4.51-1.38,6.64-.96,2.11-1.96,4.17-2.56,6.42-.58,2.16-.88,4.4-.94,6.64-.14,4.7.77,9.41,2.19,13.87,5.31,16.7,20.01,32.37,15.5,51.03-.93,3.85-2.75,7.39-5.57,10.19-.77.77.05,1.81.97,1.67,8.4-1.26,16.75-2.83,25.03-4.75,3.84-.89,7.74-1.72,11.48-2.98,3.08-1.04,6.12-2.53,8.26-5.05,4.23-4.97,3.92-12.25,8.1-17.19,2.49-2.94,6.37-4.59,9.66-6.43,3.77-2.11,7.55-4.19,11.31-6.32,3.26-1.85,6.45-3.87,9.13-6.52,2.43-2.39,4.47-5.2,5.99-8.25,1.53-3.05,2.56-6.32,3.02-9.71.57-4.11.38-8.27.54-12.41.16-4.13.91-8.05,2.47-11.88,1.46-3.56,3.38-6.9,5.16-10.31,3.52-6.76,6.13-13.94,7.6-21.43,1.48-7.54,1.87-15.3,1.11-22.95-.29-2.89-.82-5.74-1.28-8.61-.27-1.68-.34-4.14-1.39-5.56-.04-.05-.08-.1-.13-.14.57-4.3.98-8.64,1.71-12.92.97-5.62,2.74-10.94,5.09-16.13ZM454.62,351.33c.67,7.33.29,14.76-1.14,21.98-1.44,7.25-3.94,14.19-7.35,20.74-3.37,6.46-6.95,12.73-7.7,20.12-.4,3.96-.19,7.94-.41,11.91-.2,3.57-.85,7.06-2.22,10.38-2.74,6.67-7.74,11.53-13.88,15.14-3.47,2.05-7.03,3.96-10.55,5.92-3.32,1.85-6.89,3.52-9.92,5.82-5.24,3.97-5.79,10.28-8.33,15.88-1.55,3.41-4.06,5.76-7.49,7.23-3.73,1.6-7.85,2.4-11.79,3.33-7.88,1.87-15.84,3.41-23.85,4.68,4.17-5.43,5.51-12.56,4.96-19.36-.73-9-4.78-17.2-8.83-25.12-4.35-8.53-8.92-17.34-9.49-27.09-.28-4.91.67-9.45,2.74-13.9,1.79-3.85,2.84-7.61,1.44-11.79-2.88-8.63-11.64-12.33-19.75-14.49-3.82-1.02-8.68-2.82-12.1.11-1.47,1.26-2.34,3.04-3.62,4.47-1.1,1.24-2.4,2.28-3.84,3.1-5.78,3.32-13.54,3.17-19.12-.53-3.25-2.15-4.9-5.53-7.12-8.6-1.14-1.59-2.45-3.07-4.15-4.09-1.76-1.06-3.79-1.52-5.76-2.05-2.18-.59-4.15-1.35-5.72-3.05-1.52-1.65-2.6-3.74-3.59-5.74-2.08-4.18-3.55-8.65-4.42-13.23-1.78-9.33-.82-18.86,2.42-27.76,1.7-4.67,3.92-9.13,6.22-13.52,1.93-3.68,3.74-7.71,6.62-10.76,1.39-1.47,3.07-2.65,5.06-3.13,2.46-.6,5.03-.11,7.48.24,3.73.52,7.22.43,10.77-.91,6.27-2.37,11.3-6.99,16.86-10.58,2.71-1.75,5.6-3.31,8.79-3.95,4.1-.83,7.75.56,11.58,1.88,3.59,1.24,7.19,1.7,10.91.78,3.28-.81,6.3-2.48,9.1-4.34,6.01-3.97,11.52-9.29,18.52-11.48,7.36-2.3,14.85-.1,21.63,2.96,7.12,3.21,13.87,7.3,21.34,9.71,3.92,1.26,7.76,1.58,11.83,1.97,2.47.24,4.46,1.01,6.36,2.62,1.49,1.27,2.95,2.49,4.72,3.36,6.88,3.35,14.86,2.2,22.24,3.01,3.35.37,6.62,1.23,9.43,3.1-2.63,5.53-5.45,11.01-7.49,16.79-2.09,5.94-2.9,12.07-3.61,18.3-.2,1.79-.49,3.58-.74,5.37-.01.09,0,.17.02.25,0,.04,0,.08,0,.12.01.05.02.09.04.14.1.32.32.59.61.71.03.07.06.14.07.19.14.42.23.86.33,1.3.23,1.07.41,2.15.58,3.23.46,2.87.99,5.72,1.25,8.62Z"/>
      <path d="M481.93,344.77c-.52-.47-1.52-.34-1.67.44-.92,4.63-2.58,9.02-4.92,13.11-.5-.45-1.43-.43-1.63.41-2.13,9.23-4.25,18.45-6.38,27.68-1.06,4.61-2.15,9.22-3.19,13.84-.53,2.33-.64,6.53,2.72,6.65,1.63.06,2.9-1.18,3.87-2.34,1.29-1.55,2.54-3.14,3.74-4.77,2.37-3.22,4.45-6.72,5.51-10.61,1.11-4.07,1.17-8.33,2.17-12.42,1.01-4.12,3.69-7.39,5.06-11.35,2.47-7.14.27-15.56-5.28-20.64ZM485.82,362.99c-.8,3.6-3.07,6.52-4.48,9.87-1.45,3.43-1.8,7.14-2.32,10.8-.53,3.7-1.4,7.18-3.23,10.47-1.79,3.23-4.1,6.18-6.46,9.02-.76.92-2.64,2.84-3.35.87-.53-1.46.1-3.25.43-4.68.93-4.05,1.87-8.09,2.8-12.14,2.06-8.95,4.13-17.9,6.19-26.84.43.22.98.18,1.3-.35,2.32-3.89,4.04-8.1,5.1-12.49,3.65,4.17,5.23,10.04,4.02,15.48Z"/>
      <path d="M307.4,157.98c-.08,2.91,3.12,4.19,5.47,2.84,2.81-1.62,3.52-5.89,4.58-8.66.24-.62.35-1.11,1.13-.99.39.06.75.34,1.15.42.68.14,1.4-.03,1.99-.39,1.47-.9,2.14-2.79,2.72-4.32,1.5-4.01,1.87-8.31,1.26-12.54-.17-.64-.6-1.53-.56-2.18,0-.12.05-.03.05-.03-.05.2.21-.34.21-.34.16-.37.24-.81.33-1.21.2-.9.31-1.83.33-2.74.03-1.75-.26-3.53-.89-5.16-.48-1.24-1.1-2.56-2.56-2.77-2.87-.4-5.59,3.08-6.9,5.2-1.68,2.72-2.63,5.86-3.4,8.94-.98,3.94-1.81,7.93-2.62,11.91-.42,2.08-.83,4.16-1.23,6.25-.36,1.86-.98,3.84-1.03,5.75ZM310.31,153.01c.33-1.68.65-3.37.99-5.05.67-3.36,1.37-6.72,2.13-10.06,1.17-5.16,2.32-11.27,6.61-14.84.49-.41,1.28-1.12,1.96-1.13.98-.02,1.25,1.35,1.49,2.1.51,1.63.68,3.39.46,5.09-.15,1.21-.98,2.54-.72,3.72.15.69.35,1.37.53,2.05.46,3.2.24,6.47-.64,9.58-.4,1.43-.89,3.02-1.73,4.26-.48.71-.87,1.03-1.71.77-.6-.19-1.09-.5-1.75-.44-1.12.1-1.75.99-2.16,1.94-.65,1.49-1.13,3.08-1.7,4.6-.44,1.2-.94,2.66-2.05,3.4-1.05.7-2.64.48-2.62-1,.01-1.61.6-3.4.91-4.97Z"/>
      <path d="M302.09,146.73c-.48,0-.8.32-.96.73-.3.75-.6,1.49-.9,2.24-.55,1.49-.82,3.1-.79,4.69.01.79.11,1.59.26,2.37.14.72.28,1.82.94,2.23,1.26.79,2.55-.04,3.3-1.1.84-1.19,1.02-2.7,1.32-4.1.42-1.92.84-3.85,1.26-5.77.14-.63-.29-1.26-.96-1.27-1.15,0-2.31-.02-3.46-.03ZM303.15,154.06c-.18.83-.29,1.71-.72,2.46-.15.26-.34.52-.55.69,0,0,0,0-.01,0-.65-2.31-.56-4.72.28-6.99.2-.5.4-1,.61-1.5.52,0,1.04,0,1.56.01-.39,1.77-.77,3.54-1.16,5.31Z"/>
      <path d="M291.81,144.79c2.89,1.5,6.01.54,8.66-1.02,2.62-1.53,5.4-3.54,7.25-5.97,1.7-2.24,2.46-5.36,1.14-7.97-.3-.6-.73-1.1-1.21-1.56-.29-.28-.58-.5-.59-.95-.02-.43.3-.97.45-1.36.38-1.03.46-2.38-.36-3.24-.48-.5-1.24-.76-1.85-.37-.24.16-.45.4-.67.59-.62.57-1.24,1.13-1.87,1.7,0,0,0,.01-.01.02-6,4.69-10.15,11.47-11.4,19-.07.42.04.91.46,1.13ZM303.98,126.21s.07-.06.1-.1c.03-.02.07-.03.1-.06.54-.49,1.08-.99,1.63-1.48-.06.75-.67,2.13-.7,2.41-.16,1.29.51,2.04,1.35,2.89,1.78,1.81,1.14,4.67-.19,6.54-1.47,2.08-3.81,3.7-5.92,5.08-1.98,1.28-4.54,2.63-6.9,1.83,1.34-6.74,5.06-12.91,10.53-17.11Z"/>
      <path d="M314.26,119.54c1.13-.57,2.21-1.24,3.22-2,.95-.71,2-1.54,2.31-2.75.28-1.09-.17-2.19-1.21-2.67-.41-.19-.83-.26-1.23-.21-.09-.24-.18-.48-.27-.72-.02-.04-.04-.07-.06-.11-.08-.19-.2-.37-.4-.48-.08-.04-.17-.06-.25-.08-.16-.05-.33-.07-.52-.02-.03,0-.06.04-.1.05-.21.08-.4.2-.5.41-1.19,2.35-2.03,4.86-2.46,7.46-.14.86.65,1.55,1.47,1.13ZM317.56,113.87s0,0,0,0c0,0,0,0,0,0ZM317.8,114.47c-.05.1-.11.19-.17.28-.01.02-.03.04-.04.06,0,0-.01.02-.04.04-.52.61-1.21,1.09-1.87,1.54-.15.1-.31.19-.46.29.24-.92.53-1.82.87-2.7.43.49,1.17.46,1.56-.09.02,0,.04.02.06.02-.01,0-.03-.02-.05-.03,0,0,0,0,0,0,.05.03.1.07.14.08,0,0,0,0,0,0,.01.01.04.04.06.06,0,0,0,.01.01.02,0,0,0,.01,0,.02,0,0,0,.1,0,.16,0,.02-.03.1-.04.13-.02.06-.02.07,0,0l-.05.1Z"/>
      <path d="M317.71,113.92s.03.01,0,0h0Z"/>
    </g>
  </g>
  <g id="Layer_3" class="st6">
    <path class="st0" d="M451.82,338.1l-1.16-.15c.04.07.08.14.12.21,0,.1.09.28.13.38.14.42.23.86.33,1.3.23,1.07.41,2.15.58,3.23.46,2.87.99,5.72,1.25,8.62.67,7.33.29,14.76-1.14,21.98-1.44,7.25-3.94,14.19-7.35,20.74-3.37,6.46-6.95,12.73-7.7,20.12-.4,3.96-.19,7.94-.41,11.91-.2,3.57-.85,7.06-2.22,10.38-2.74,6.67-7.74,11.53-13.88,15.14-3.47,2.05-7.03,3.96-10.55,5.92-3.32,1.85-6.89,3.52-9.92,5.82-5.24,3.97-5.79,10.28-8.33,15.88-1.55,3.41-4.06,5.76-7.49,7.23-3.73,1.6-7.85,2.4-11.79,3.33-8.82,2.09-17.72,3.8-26.68,5.13l.97,1.67c5.63-5.6,7.45-13.76,6.82-21.48-.73-9-4.78-17.2-8.83-25.12-4.35-8.53-8.92-17.34-9.49-27.09-.28-4.91.67-9.45,2.74-13.9,1.79-3.85,2.84-7.61,1.44-11.79-2.88-8.63-11.64-12.33-19.75-14.49-3.82-1.02-8.68-2.82-12.1.11-1.47,1.26-2.34,3.04-3.62,4.47-1.1,1.24-2.4,2.28-3.84,3.1-5.78,3.32-13.54,3.17-19.12-.53-3.25-2.15-4.9-5.53-7.12-8.6-1.14-1.59-2.45-3.07-4.15-4.09s-3.79-1.52-5.76-2.05c-2.18-.59-4.15-1.35-5.72-3.05s-2.6-3.74-3.59-5.74c-2.08-4.18-3.55-8.65-4.42-13.23-1.78-9.33-.82-18.86,2.42-27.76,1.7-4.67,3.92-9.13,6.22-13.52,1.93-3.68,3.74-7.71,6.62-10.76,1.39-1.47,3.07-2.65,5.06-3.13,2.46-.6,5.03-.11,7.48.24,3.73.52,7.22.43,10.77-.91,6.27-2.37,11.3-6.99,16.86-10.58,2.71-1.75,5.6-3.31,8.79-3.95,4.1-.83,7.75.56,11.58,1.88,3.59,1.24,7.19,1.7,10.91.78,3.28-.81,6.3-2.48,9.1-4.34,6.01-3.97,11.52-9.29,18.52-11.48,7.36-2.3,14.85-.1,21.63,2.96,7.12,3.21,13.87,7.3,21.34,9.71,3.92,1.26,7.76,1.58,11.83,1.97,2.47.24,4.46,1.01,6.36,2.62,1.49,1.27,2.95,2.49,4.72,3.36,6.88,3.35,14.86,2.2,22.24,3.01,3.66.4,7.22,1.38,10.19,3.62l-.36-1.37c-2.74,5.81-5.75,11.56-7.89,17.64s-2.9,12.07-3.61,18.3c-.2,1.79-.49,3.58-.74,5.37-.17,1.26,1.75,1.8,1.93.53.64-4.61,1.04-9.27,1.83-13.85.97-5.62,2.74-10.94,5.09-16.13,1.64-3.64,3.41-7.23,5.11-10.84.25-.53.11-1.02-.36-1.37-6.21-4.69-14.45-4.04-21.8-4.44-3.77-.2-7.69-.64-11.08-2.43-1.89-.99-3.33-2.48-5.02-3.75s-3.66-1.92-5.79-2.18-4.3-.25-6.42-.59c-1.93-.31-3.84-.8-5.7-1.4-3.8-1.23-7.43-2.92-11-4.69-6.81-3.37-13.7-7.31-21.28-8.61-3.59-.61-7.26-.58-10.79.36s-6.69,2.68-9.67,4.66c-5.89,3.89-11.37,9.32-18.31,11.28-3.98,1.12-7.64.38-11.46-.98s-7.26-2.3-11.2-1.6c-6.55,1.16-11.93,5.79-17.21,9.51-2.7,1.9-5.51,3.78-8.59,5-1.53.6-3.13,1.06-4.77,1.23-2.29.24-4.54-.12-6.8-.44-4.25-.6-8.19-.43-11.62,2.42-3.14,2.61-5.05,6.4-6.93,9.93-4.56,8.58-9.05,17.44-10.5,27.16-1.34,8.95-.4,18.22,2.77,26.7,1.49,3.98,3.36,8.49,6.41,11.55,1.5,1.51,3.36,2.4,5.38,3s4.2.95,6.05,2.02c3.6,2.07,5.18,6.35,7.7,9.45,2.09,2.57,4.97,4.4,8.09,5.45,6.25,2.1,13.65,1.09,18.88-3.01,1.38-1.08,2.51-2.34,3.52-3.76,1.34-1.86,2.6-3.6,5.09-3.72,2.23-.1,4.53.7,6.66,1.26,2.28.6,4.55,1.25,6.76,2.09,4.23,1.62,8.21,4.11,10.68,8,1.11,1.75,1.93,3.74,2.12,5.81.23,2.35-.42,4.51-1.38,6.64s-1.96,4.17-2.56,6.42-.88,4.4-.94,6.64c-.14,4.7.77,9.41,2.19,13.87,5.31,16.7,20.01,32.37,15.5,51.03-.93,3.85-2.75,7.39-5.57,10.19-.77.77.05,1.81.97,1.67,8.4-1.26,16.75-2.83,25.03-4.75,3.84-.89,7.74-1.72,11.48-2.98,3.08-1.04,6.12-2.53,8.26-5.05,4.23-4.97,3.92-12.25,8.1-17.19,2.49-2.94,6.37-4.59,9.66-6.43,3.77-2.11,7.56-4.19,11.31-6.32,3.26-1.85,6.45-3.87,9.13-6.52,2.43-2.39,4.47-5.2,5.99-8.25s2.56-6.32,3.02-9.71c.57-4.11.38-8.27.54-12.41s.91-8.05,2.47-11.88c1.46-3.56,3.38-6.9,5.16-10.31,3.52-6.76,6.13-13.94,7.6-21.43s1.87-15.3,1.11-22.95c-.29-2.89-.82-5.74-1.28-8.61-.27-1.68-.34-4.14-1.39-5.56-.47-.63-1.36-.83-1.92-.18-.83.97.57,2.39,1.41,1.41Z"/>
    <path class="st0" d="M472.14,359.09c-2.13,9.23-4.25,18.45-6.38,27.68-1.06,4.61-2.15,9.22-3.19,13.84-.53,2.33-.64,6.53,2.72,6.65,1.63.06,2.9-1.18,3.87-2.34,1.29-1.55,2.54-3.14,3.74-4.77,2.37-3.22,4.45-6.72,5.51-10.61s1.17-8.33,2.17-12.42,3.69-7.39,5.06-11.35c2.47-7.14.27-15.56-5.28-20.64-.52-.47-1.52-.34-1.67.44-.97,4.88-2.75,9.5-5.29,13.77-.66,1.11,1.07,2.12,1.73,1.01,2.63-4.41,4.49-9.22,5.5-14.25l-1.67.44c4.56,4.18,6.65,10.76,5.3,16.8-.8,3.6-3.07,6.52-4.48,9.87s-1.8,7.14-2.32,10.8-1.4,7.18-3.23,10.47-4.1,6.18-6.46,9.02c-.76.92-2.64,2.84-3.35.87-.53-1.46.1-3.25.43-4.68l2.8-12.14c2.15-9.31,4.29-18.61,6.44-27.92.29-1.25-1.64-1.79-1.93-.53h0Z"/>
    <path class="st0" d="M320.44,260.7c-7.76,7.08-18.28,10.66-28.75,9.88l.96.73c-.72-5.27-1.43-10.54-2.15-15.8-.49-3.63-.89-7.32-.3-10.97.48-2.96,1.64-6.21,4.51-7.63,3.64-1.8,7.72.33,11.29,1.27,3.32.88,6.89.86,9.58-1.54,2.17-1.94,3.08-4.94,3.27-7.76.22-3.17-.46-6.44-1.86-9.29-1.83-3.72-4.5-6.95-6.58-10.52s-3.5-7.75-2.64-12.05,3.29-7.97,5.96-11.26c3.04-3.75,6.46-7.2,9.75-10.73s6.28-6.96,9.72-10.13c3.04-2.8,6.48-5.4,10.48-6.62,4.48-1.36,8.88-.4,13.25.88s8.79,2.59,13.46,2.15,9.03-2.13,13.17-4.2c14.36-7.22,28.21-18.49,34.87-33.45.81-1.83,1.52-3.7,2.11-5.62.38-1.23-1.55-1.76-1.93-.53-5,16.14-18.41,28.03-32.73,36.09-4.19,2.36-8.61,4.49-13.36,5.4s-9.37-.08-14.02-1.46c-4.23-1.25-8.51-2.44-12.95-1.74-3.99.63-7.59,2.66-10.75,5.11-3.45,2.68-6.41,5.89-9.37,9.08-3.48,3.74-7.01,7.45-10.44,11.24-5.47,6.07-11.08,13.68-9.07,22.34,1.8,7.76,8.94,13.02,10.6,20.76.64,2.98.59,6.46-.96,9.17-1.88,3.28-5.45,3.68-8.85,2.81-3.72-.95-7.52-2.86-11.43-1.74-2.95.84-4.96,3.16-6.06,5.94-1.22,3.09-1.42,6.58-1.26,9.86.22,4.54,1.09,9.08,1.7,13.58.36,2.63.72,5.27,1.07,7.9.06.45.57.7.96.73,10.99.82,22.03-3.05,30.16-10.46.95-.87-.46-2.28-1.41-1.41h0Z"/>
    <path class="st0" d="M322.35,261.48c4.74-6.27,12.61-8.37,20.12-8.71,8.79-.39,17.52,1.27,26.18,2.55,5.45.81,10.89,1.62,16.34,2.42s10.49,1.88,15.76,2.02c2.52.07,5.01-.23,7.45-.88s4.74-1.52,7.16-2.14c3.89-1,7.96-1.23,11.95-.76,8.07.94,15.84,4.76,21.37,10.72,2.57,2.77,4.68,7.68,9.26,5.8,2.1-.86,3.99-2.42,5.77-3.8s3.48-2.83,5.1-4.39c3.33-3.19,6.3-6.75,8.86-10.58s4.66-8.12,3.57-12.73c-1.01-4.24-4.4-7.43-5.42-11.66-.44-1.83-.5-4.01.69-5.58s3.13-1.89,4.94-1.41c4.59,1.23,6.04,5.95,6.58,10.15.57,4.48.82,8.93,2.3,13.24,1.33,3.86,3.49,7.55,6.82,10.01,3.02,2.24,6.96,3.43,10.71,2.91,1.84-.25,3.56-.93,5.06-2.04,1.02-.76.03-2.49-1.01-1.73-3.32,2.45-7.69,2.33-11.31.59-4-1.92-6.62-5.64-8.13-9.72-1.59-4.3-1.87-8.77-2.43-13.27-.51-4.1-1.63-8.39-5.26-10.81-2.88-1.93-7.08-2.32-9.55.49s-1.85,7.1-.43,10.27c1.9,4.23,5.54,7.91,4.59,12.91-.89,4.66-4.31,8.94-7.28,12.5s-6.35,6.81-10.06,9.61c-.89.67-1.79,1.32-2.72,1.94-1.11.75-2.56,1.82-3.98,1.47-1.08-.27-1.81-1.33-2.44-2.17s-1.19-1.6-1.84-2.36c-5.15-6.07-12.5-10.22-20.26-11.84-3.87-.81-7.86-1.01-11.79-.51-4.67.59-8.93,2.6-13.54,3.43-5.44.99-11.14-.33-16.53-1.13s-10.73-1.59-16.1-2.39c-9.04-1.34-18.16-3.16-27.33-3.22-7.36-.05-15.21,1.12-21.13,5.84-1.43,1.14-2.66,2.46-3.76,3.92-.78,1.03.96,2.02,1.73,1.01h0Z"/>
    <path class="st0" d="M322.18,135.24c.44,3.05.26,6.17-.52,9.15-.35,1.34-.8,2.68-1.42,3.92-.25.5-.52,1.04-.96,1.39-.71.56-1.25.02-1.96-.19-2.59-.77-3.31,2.32-3.97,4.11-.69,1.87-1.57,6.31-4.29,6.1-1.56-.12-1.23-1.62-1.02-2.75.31-1.6.62-3.21.93-4.81.61-3.13,1.23-6.25,1.89-9.36,1.1-5.16,1.94-10.83,4.51-15.51.69-1.26,4.71-6.95,6.04-4.23,1.42,2.9,1.32,6.39.18,9.35-.46,1.2,1.47,1.72,1.93.53,1.21-3.16,1.26-6.73.04-9.89-.46-1.2-1.04-2.47-2.43-2.75s-2.65.55-3.66,1.34c-4.99,3.9-6.33,10.71-7.65,16.55-.9,3.98-1.71,7.98-2.5,11.99-.35,1.76-.69,3.53-1.02,5.29-.29,1.5-.89,3.31-.03,4.74,1.3,2.17,4.45,1.75,6.02.18.99-.99,1.53-2.31,2.01-3.59.34-.88.65-1.78.98-2.66.25-.67.58-2.69,1.51-2.71.24,0,.77.35,1.01.42.4.12.79.16,1.21.11.6-.08,1.14-.36,1.59-.76,1.3-1.14,1.93-3.01,2.48-4.6,1.32-3.84,1.61-7.91,1.03-11.91-.18-1.27-2.11-.73-1.93.53h0Z"/>
    <path class="st0" d="M297.87,150.06c-.55,1.49-.82,3.1-.79,4.69.01.79.11,1.59.26,2.37.14.72.28,1.82.94,2.23,1.26.79,2.55-.04,3.3-1.1.84-1.19,1.02-2.7,1.32-4.1.42-1.92.84-3.85,1.26-5.77.14-.63-.29-1.26-.96-1.27-1.15,0-2.31-.02-3.46-.03-1.29-.01-1.29,1.99,0,2,1.15,0,2.31.02,3.46.03l-.96-1.27c-.48,2.19-.96,4.38-1.44,6.57-.18.83-.29,1.71-.72,2.46-.15.26-.34.52-.55.69-.1.08-.17.1-.19.1.11-.01,0-.03-.1-.09l.46.6c-.85-2.49-.81-5.12.1-7.59.19-.51-.21-1.1-.7-1.23-.56-.15-1.04.19-1.23.7h0Z"/>
    <path class="st0" d="M301.4,124.85c-6.12,4.69-10.34,11.55-11.62,19.18-.07.42.04.91.46,1.13,3.01,1.56,6.24.46,8.96-1.2s5.66-3.75,7.41-6.43c1.55-2.37,1.99-5.79.16-8.14-.41-.52-1.23-1.01-1.28-1.7-.06-.77.63-1.6.71-2.4.12-1.2-.37-2.41-1.6-2.74s-1.77,1.59-.53,1.93c.58.16-.49,2.5-.53,2.89-.16,1.29.51,2.04,1.35,2.89,1.78,1.81,1.14,4.67-.19,6.54-1.47,2.08-3.81,3.7-5.92,5.08s-5,2.88-7.53,1.57l.46,1.13c1.18-7.08,4.99-13.6,10.7-17.98,1.01-.77.01-2.51-1.01-1.73h0Z"/>
    <path class="st0" d="M313.68,111.31c-1.19,2.35-2.03,4.86-2.46,7.46-.14.86.65,1.55,1.47,1.13,1.13-.57,2.21-1.24,3.22-2,.95-.71,2-1.54,2.31-2.75.28-1.09-.17-2.19-1.21-2.67s-2.26-.18-2.71.97c-.2.5.22,1.1.7,1.23.57.16,1.03-.19,1.23-.7-.04.1-.13.21-.2.23-.08.03-.08.03,0,0h-.14c.07.01.13.01.2.01-.11,0-.17-.03-.02,0,.07.02.18.1,0-.01.05.03.11.07.16.09.09.03-.11-.12,0,0,.03.03.21.21.04.02.02.03.11.21.05.07s0,.05.01.09c-.04-.22-.02.1-.03.13.02-.14-.03.04-.04.09-.02.06-.02.07,0,0l-.05.1c-.05.1-.11.19-.17.28l-.06.09s.03-.04-.02.02c-.52.61-1.21,1.09-1.87,1.54-.78.53-1.59,1-2.42,1.43l1.47,1.13c.4-2.43,1.15-4.79,2.25-6.98.24-.48.13-1.08-.36-1.37-.44-.26-1.12-.13-1.37.36h0Z"/>
    <path class="st0" d="M81.16,301.15c18.01,6.96,29.49,23.71,44.31,35.22,3.66,2.84,7.54,5.42,11.72,7.44,5.06,2.44,10.46,4.04,15.75,5.92s10.41,4.2,14.84,7.72c4.12,3.28,7.62,7.33,10.38,11.81,1.29,2.09,2.25,4.42,3.77,6.36.6.76,1.3,1.48,2.15,1.95.96.53,2.05.46,2.97.99,5.18,2.99,10.22,6.26,15.27,9.46,8.39,5.32,16.72,11.08,23.3,18.59,3.16,3.61,5.87,7.65,7.76,12.08,2.24,5.25,3.1,10.9,3.34,16.57s-.09,11.85.03,17.78c.06,2.96.25,5.91.67,8.84s1.28,5.7,1.92,8.57c.37,1.64.57,3.33.16,4.98-.35,1.38-1.06,2.63-1.71,3.88-1.1,2.14-1.89,4.31-1.97,6.74-.16,4.95,2.29,9.63,5.39,13.33,6.11,7.28,15.38,9.61,23.21,14.43,1.71,1.05,3.32,2.23,4.68,3.71.87.95,2.29-.47,1.41-1.41-2.94-3.19-6.98-5.22-10.82-7.1-4.06-1.99-8.32-3.74-12.04-6.34-4.03-2.82-7.56-7.08-9.09-11.79-.79-2.42-1.01-5.01-.33-7.47s2.35-4.58,3.1-7.05c.88-2.92.13-5.9-.65-8.76-.81-3-1.38-6.03-1.65-9.13-.52-5.91-.23-11.84-.22-17.76s-.23-11.67-1.71-17.31c-1.24-4.73-3.39-9.21-6.17-13.23-5.57-8.06-13.33-14.31-21.36-19.79-4.28-2.92-8.69-5.63-13.1-8.36-2.8-1.73-5.61-3.46-8.41-5.2-.53-.33-.89-.59-1.51-.65-.54-.05-.97-.08-1.46-.34-1.09-.59-1.86-1.73-2.48-2.76-1.31-2.16-2.39-4.42-3.81-6.52s-3.1-4.26-4.9-6.17c-3.58-3.83-7.82-7.01-12.52-9.33-5.06-2.49-10.48-4.09-15.78-5.98-4.97-1.76-9.68-3.93-14.09-6.83-15.89-10.45-26.82-27.17-43.72-36.25-1.97-1.06-4-1.98-6.09-2.79-1.2-.46-1.72,1.47-.53,1.93h0Z"/>
    <path class="st0" d="M111.32,192.23c14.53-6.94,29.41-13.11,44.6-18.45,3.82-1.34,7.65-2.63,11.5-3.87s7.49-2.57,11.35-3.26c4.11-.74,7.82.2,11.61,1.79,3.36,1.41,6.65,2.82,10.21,3.66,13.11,3.12,27.76.11,36.69-10.5,3.97-4.71,6.61-10.53,7.04-16.71.26-3.75-.43-7.48-1.07-11.16s-1.03-7.02-.72-10.62c1.16-13.64,9.87-26.06,19.52-35.24,1.18-1.13,2.4-2.21,3.65-3.26.98-.83-.44-2.24-1.41-1.41-10.1,8.52-18.99,19.86-22.49,32.78-.85,3.13-1.35,6.38-1.39,9.63-.04,3.57.65,7.06,1.25,10.56s1.03,7.34.39,11.01c-.55,3.12-1.67,6.1-3.25,8.83-3.16,5.46-8.07,9.85-13.84,12.41-6.64,2.94-14.22,3.53-21.34,2.27-3.59-.64-7.04-1.76-10.39-3.2s-6.81-2.99-10.55-3.14-7.61,1.07-11.24,2.2-7.56,2.4-11.32,3.67c-15.11,5.13-29.94,11.06-44.42,17.75-1.8.83-3.59,1.68-5.38,2.53-1.16.55-.15,2.28,1.01,1.73h0Z"/>
  </g>
  <g id="Layer_2">
    <g>
      <path class="st1" d="M193.71,211.27c8.02,2.68,17.88-.64,29.32-9.86-.77-7.12-2.64-13.34-5.59-18.07-2.91-4.66-6.61-7.49-11.02-8.39-1-.21-2.02-.31-3.05-.31-8.43,0-17.54,6.78-25.05,17.74.7,2.44,4.88,15.37,15.38,18.88Z"/>
      <path d="M386.85,214.17c-2.19,0-4.29-.33-6.29-1.01-10.03-3.36-14.62-14.05-16.16-18.61-4.75,7.48-8.75,16.65-11.38,26.82-5.03,19.42-3.93,38.26,2.87,49.17,2.91,4.66,6.61,7.49,11.02,8.39,1,.21,2.02.31,3.05.31,14.46,0,30.92-19.93,37.86-46.72,2.61-10.07,3.55-19.97,2.93-28.7-8.83,6.89-16.82,10.36-23.87,10.36Z"/>
      <path d="M199.36,214.17c-2.19,0-4.29-.33-6.29-1.01-10.03-3.36-14.62-14.05-16.16-18.61-4.75,7.48-8.75,16.65-11.38,26.82-5.03,19.43-3.93,38.26,2.87,49.17,2.91,4.66,6.61,7.48,11.02,8.39,1,.21,2.02.31,3.05.31,14.46,0,30.92-19.93,37.86-46.72,2.61-10.07,3.55-19.97,2.93-28.7-8.83,6.89-16.82,10.36-23.87,10.36Z"/>
      <path class="st1" d="M381.2,211.27c8.01,2.68,17.88-.64,29.32-9.86-.77-7.12-2.64-13.34-5.59-18.07-2.91-4.66-6.61-7.48-11.02-8.39-1-.21-2.02-.31-3.05-.31-8.43,0-17.54,6.78-25.05,17.74.7,2.44,4.88,15.37,15.38,18.88Z"/>
      <path d="M206.83,173c-16.16-3.32-35.55,18.16-43.24,47.88-5.16,19.94-3.97,39.38,3.11,50.73,3.16,5.07,7.42,8.29,12.31,9.29,1.11.23,2.23.34,3.36.34,15.4,0,32.72-20.53,39.89-48.21,5.16-19.94,3.97-39.37-3.11-50.73-3.16-5.07-7.42-8.29-12.31-9.29ZM203.38,174.65c1.03,0,2.05.1,3.05.31,4.4.9,8.11,3.73,11.02,8.39,2.95,4.73,4.82,10.95,5.59,18.07-11.44,9.21-21.3,12.53-29.32,9.86-10.5-3.51-14.68-16.44-15.38-18.88,7.51-10.96,16.61-17.74,25.05-17.74ZM220.31,232.51c-6.94,26.8-23.39,46.73-37.86,46.72-1.03,0-2.05-.1-3.05-.31-4.4-.9-8.11-3.73-11.02-8.39-6.8-10.9-7.9-29.74-2.87-49.17,2.63-10.17,6.64-19.35,11.38-26.82,1.54,4.56,6.13,15.26,16.16,18.61,2,.67,4.1,1.01,6.29,1.01,7.05,0,15.05-3.47,23.87-10.36.63,8.73-.32,18.63-2.93,28.7Z"/>
      <path d="M394.32,173c-16.16-3.32-35.55,18.16-43.24,47.88-5.16,19.94-3.97,39.37,3.11,50.73,3.16,5.07,7.42,8.29,12.31,9.29,1.11.23,2.23.34,3.36.34,15.4,0,32.72-20.53,39.89-48.21,5.16-19.94,3.97-39.38-3.11-50.73-3.16-5.07-7.42-8.29-12.31-9.29ZM390.87,174.65c1.03,0,2.05.1,3.05.31,4.4.9,8.11,3.73,11.02,8.39,2.95,4.73,4.82,10.95,5.59,18.07-11.44,9.21-21.3,12.53-29.32,9.86-10.51-3.51-14.68-16.44-15.38-18.88,7.51-10.96,16.61-17.74,25.05-17.74ZM407.8,232.51c-6.94,26.8-23.39,46.73-37.86,46.72-1.03,0-2.05-.1-3.05-.31-4.4-.9-8.11-3.73-11.02-8.39-6.8-10.9-7.9-29.74-2.87-49.17,2.63-10.17,6.64-19.35,11.38-26.82,1.54,4.56,6.13,15.26,16.16,18.61,2,.67,4.1,1.01,6.29,1.01,7.05,0,15.05-3.47,23.87-10.36.63,8.73-.32,18.63-2.93,28.7Z"/>
    </g>
    <path class="st4" d="M256.49,242.7s18.79,43.73,46.98,0"/>
  </g>
</svg>