<?xml version="1.0" encoding="UTF-8"?>
<svg xmlns="http://www.w3.org/2000/svg" version="1.1" viewBox="0 0 600 600">
  <!-- Generator: Adobe Illustrator 29.0.1, SVG Export Plug-In . SVG Version: 2.1.0 Build 192)  -->
  <defs>
    <style>
      .st0 {
        fill: #231f20;
      }

      .st1 {
        fill: #fff;
      }

      .st2 {
        fill: #82c88a;
      }

      .st3 {
        fill: #77c47e;
      }

      .st4 {
        fill: none;
        stroke: #231f20;
        stroke-linecap: round;
        stroke-miterlimit: 10;
        stroke-width: 6px;
      }

      .st5 {
        fill: #9dcf79;
      }

      .st6 {
        display: none;
      }

      .st7 {
        fill: #79c47b;
      }

      .st8 {
        fill: #88bae5;
      }

      .st9 {
        fill: #83c881;
      }
    </style>
  </defs>
  <g id="Layer_1">
    <path class="st0" d="M122.45-85.16c1.93,0,1.93-3,0-3s-1.93,3,0,3h0Z"/>
    <g>
      <path class="st5" d="M303.75,94.1c-.27.68-.55,1.36-.82,2.04-1.13,3.09-1.26,6.37-.38,9.51,0,0,0,0,.02-.01.28-.23.55-.59.75-.95.58-1.02.73-2.22.97-3.35.53-2.41,1.05-4.82,1.58-7.23-.71,0-1.41-.01-2.12-.02Z"/>
      <path class="st9" d="M316.36,108.05c1.51-1.01,2.19-3,2.79-4.63.77-2.08,1.43-4.24,2.32-6.27.57-1.29,1.42-2.5,2.94-2.64.89-.08,1.57.35,2.38.6,1.14.36,1.67-.08,2.32-1.04,1.14-1.69,1.8-3.85,2.35-5.8,1.19-4.23,1.49-8.68.87-13.04-.24-.93-.51-1.85-.72-2.79-.36-1.61.77-3.42.98-5.07.29-2.32.07-4.7-.63-6.92-.32-1.02-.7-2.88-2.02-2.86-.93.02-2,.99-2.67,1.54-5.84,4.86-7.39,13.18-8.99,20.21-1.04,4.55-1.99,9.12-2.9,13.7-.46,2.29-.9,4.58-1.35,6.87-.42,2.15-1.22,4.58-1.24,6.77-.02,2.02,2.14,2.32,3.57,1.36Z"/>
      <path class="st3" d="M507.97,353.74c-.13-.59-.26-1.19-.44-1.77-.02-.07-.06-.16-.1-.26-.39-.17-.7-.54-.83-.97-.02-.06-.04-.12-.05-.18,0-.06,0-.11,0-.17-.01-.11-.04-.22-.02-.34.34-2.43.73-4.87,1.01-7.31.97-8.47,2.06-16.82,4.91-24.9,2.77-7.87,6.61-15.33,10.19-22.86-3.83-2.54-8.27-3.72-12.83-4.22-10.04-1.1-20.9.47-30.27-4.09-2.41-1.18-4.4-2.84-6.43-4.57-2.59-2.2-5.29-3.25-8.66-3.57-5.54-.53-10.77-.96-16.1-2.68-10.16-3.28-19.35-8.85-29.05-13.21-9.23-4.16-19.43-7.15-29.45-4.02-9.53,2.98-17.03,10.22-25.21,15.63-3.81,2.52-7.92,4.8-12.39,5.9-5.06,1.25-9.96.62-14.85-1.06-5.21-1.79-10.19-3.69-15.77-2.56-4.34.88-8.28,3-11.97,5.38-7.58,4.88-14.41,11.18-22.95,14.4-4.83,1.82-9.59,1.95-14.66,1.24-3.34-.47-6.84-1.14-10.19-.32-2.71.66-4.99,2.26-6.88,4.27-3.93,4.15-6.39,9.64-9.01,14.64-3.14,5.98-6.15,12.05-8.47,18.41-4.42,12.12-5.71,25.08-3.29,37.78,1.19,6.24,3.19,12.32,6.02,18.01,1.35,2.72,2.82,5.57,4.89,7.81,2.13,2.31,4.81,3.35,7.78,4.15,2.67.72,5.44,1.34,7.84,2.79,2.3,1.39,4.09,3.41,5.64,5.57,3.01,4.19,5.27,8.78,9.69,11.71,7.59,5.03,18.15,5.24,26.02.72,1.96-1.12,3.72-2.54,5.22-4.22,1.74-1.95,2.93-4.37,4.93-6.09,4.64-3.99,11.27-1.53,16.47-.15,11.04,2.94,22.96,7.97,26.88,19.73,1.9,5.68.48,10.8-1.97,16.04-2.82,6.05-4.12,12.23-3.73,18.91.77,13.27,6.99,25.26,12.91,36.87,5.51,10.79,11.02,21.94,12.01,34.2.75,9.25-1.08,18.95-6.75,26.35,10.89-1.73,21.73-3.83,32.46-6.37,5.36-1.27,10.96-2.36,16.04-4.54,4.68-2.01,8.09-5.2,10.2-9.84,3.46-7.62,4.21-16.21,11.34-21.61,4.13-3.13,8.99-5.41,13.51-7.93,4.79-2.68,9.63-5.28,14.36-8.06,8.35-4.92,15.15-11.53,18.89-20.61,1.86-4.52,2.75-9.27,3.02-14.13.3-5.4.01-10.82.56-16.21,1.01-10.06,5.9-18.59,10.48-27.38,4.64-8.92,8.05-18.36,10.01-28.23,1.95-9.83,2.47-19.94,1.56-29.92-.36-3.95-1.08-7.83-1.71-11.74-.24-1.47-.48-2.94-.79-4.4Z"/>
      <path class="st5" d="M324.28,47.31s.04-.16.05-.18c0-.08,0-.2,0-.21,0,0,0-.02,0-.02,0,0,0-.02-.01-.03-.04-.03-.07-.07-.09-.09,0,0,0,0,0,0-.06-.02-.14-.07-.2-.11,0,0,0,0,0,0,.03.02.06.03.07.04.04.02.05.03,0,0-.02-.01-.05-.02-.08-.03-.53.74-1.54.79-2.12.12-.47,1.2-.86,2.42-1.19,3.67.21-.13.42-.26.63-.4.9-.61,1.84-1.26,2.55-2.09.03-.03.04-.05.05-.06.02-.03.04-.06.06-.09.08-.12.16-.25.23-.38l.06-.13c-.04.08-.04.08,0,0Z"/>
      <path class="st8" d="M323.9,46.64s0,0,0,0c0,0,0,0,0,0Z"/>
      <path class="st5" d="M300.47,84.25c2.88-1.87,6.06-4.08,8.06-6.91,1.8-2.54,2.68-6.44.25-8.9-1.14-1.16-2.06-2.19-1.84-3.94.05-.39.87-2.27.96-3.29-.74.67-1.48,1.34-2.21,2.01-.04.04-.09.05-.13.08-.05.05-.09.09-.14.13-7.45,5.72-12.51,14.12-14.34,23.29,3.22,1.09,6.7-.74,9.39-2.49Z"/>
      <path class="st9" d="M216.01,483.64c-.32-7.72-1.5-15.41-4.55-22.56-2.56-6.02-6.25-11.53-10.56-16.44-8.97-10.23-20.3-18.07-31.72-25.31-6.87-4.35-13.74-8.82-20.79-12.88-1.26-.72-2.74-.62-4.05-1.35-1.16-.64-2.11-1.62-2.92-2.65-2.08-2.64-3.38-5.81-5.13-8.66-3.76-6.1-8.51-11.62-14.12-16.08-6.03-4.79-12.99-7.94-20.2-10.51-7.19-2.57-14.54-4.74-21.43-8.06-5.69-2.75-10.97-6.25-15.95-10.12-20.18-15.67-35.8-38.47-60.32-47.94-.06-.02-.1-.07-.16-.1.48,148.1,110.32,270.92,252.83,291.8-1.03-.79-2.11-1.52-3.22-2.2-10.66-6.56-23.28-9.73-31.59-19.64-4.22-5.03-7.56-11.41-7.34-18.14.11-3.31,1.19-6.27,2.69-9.18.88-1.71,1.86-3.41,2.33-5.29.56-2.25.28-4.55-.22-6.78-.88-3.91-2.05-7.69-2.62-11.66-.57-3.99-.83-8.01-.92-12.03-.17-8.07.29-16.14-.05-24.2Z"/>
      <path class="st7" d="M437.1,107.23c-4.81,2.41-9.92,4.36-15.31,4.87-5.42.51-10.5-.98-15.64-2.49-5.08-1.49-10.2-2.6-15.41-1.02-4.65,1.41-8.66,4.42-12.19,7.67-3.99,3.68-7.6,7.77-11.3,11.74-3.82,4.09-7.8,8.09-11.33,12.44-3.11,3.82-5.95,8.16-6.93,13.06-1,4.99.57,9.69,3.07,13.97,2.42,4.14,5.52,7.89,7.65,12.19,1.63,3.3,2.42,7.09,2.17,10.76-.22,3.28-1.28,6.75-3.81,9-3.13,2.79-7.28,2.81-11.14,1.78-4.15-1.1-8.89-3.57-13.12-1.48-3.33,1.64-4.68,5.41-5.24,8.84-.69,4.23-.23,8.5.35,12.71.8,5.84,1.59,11.68,2.39,17.52,11.83.61,23.63-3.52,32.4-11.5.04-.04.09-.05.13-.08.03-.07.04-.13.09-.2,1.28-1.69,2.7-3.22,4.37-4.54,6.88-5.47,16.01-6.83,24.57-6.77,10.65.08,21.26,2.18,31.76,3.74,6.24.92,12.48,1.85,18.71,2.77,6.26.93,12.88,2.45,19.21,1.31,5.35-.97,10.31-3.29,15.74-3.98,4.56-.58,9.2-.34,13.7.59,9.03,1.88,17.56,6.69,23.56,13.72.75.88,1.44,1.8,2.14,2.73.73.98,1.57,2.21,2.83,2.52,1.65.41,3.34-.84,4.63-1.71,1.07-.72,2.13-1.47,3.16-2.25,4.31-3.25,8.23-7.01,11.69-11.14,3.45-4.13,7.43-9.09,8.46-14.49,1.11-5.79-3.12-10.06-5.33-14.96-1.65-3.67-2.4-8.62.5-11.9,2.87-3.26,7.75-2.8,11.11-.56,4.21,2.81,5.51,7.78,6.11,12.53.66,5.22.98,10.39,2.83,15.38,1.75,4.74,4.8,9.04,9.45,11.27,3.85,1.85,8.43,2.08,12.13-.06-17.45-63.14-55.35-117.86-106.09-156.58-.47,1.28-.97,2.55-1.53,3.8-7.74,17.34-23.85,30.41-40.54,38.77Z"/>
      <path class="st2" d="M251.77,8.04C163.3,22.6,87.93,76.53,44.31,151.19c.76-.35,1.52-.71,2.28-1.06,20.35-9.3,41.19-17.54,62.4-24.66,5.33-1.79,10.68-3.51,16.06-5.16,5.13-1.57,10.42-3.3,15.85-3.15,5.2.14,9.98,2.2,14.7,4.19,4.8,2.04,9.7,3.68,14.84,4.61,10.07,1.82,20.83,1.07,30.28-3.02,8.19-3.54,15.22-9.66,19.76-17.36,2.21-3.75,3.8-7.85,4.6-12.13.95-5.11.43-10.24-.44-15.33-.84-4.95-1.86-9.86-1.83-14.91.03-4.49.72-8.99,1.88-13.32,4.34-16.16,14.8-30.51,27.07-41.86Z"/>
      <path class="st8" d="M581.57,224.97c-4.36.6-8.94-.78-12.45-3.37-3.87-2.86-6.38-7.12-7.92-11.6-1.72-4.99-2.01-10.16-2.68-15.35-.62-4.88-2.32-10.34-7.65-11.77-2.09-.56-4.37-.17-5.74,1.63-1.38,1.82-1.32,4.35-.8,6.47,1.19,4.9,5.13,8.59,6.3,13.51,1.27,5.34-1.25,10.42-4.15,14.75-2.97,4.44-6.43,8.57-10.29,12.27-1.88,1.8-3.86,3.49-5.93,5.08-2.07,1.6-4.27,3.41-6.71,4.4-5.33,2.18-7.77-3.52-10.76-6.73-6.44-6.91-15.47-11.34-24.84-12.43-4.64-.54-9.37-.27-13.89.89-2.81.72-5.52,1.74-8.32,2.48-2.84.75-5.73,1.1-8.66,1.02-6.12-.16-12.27-1.44-18.31-2.34-6.33-.94-12.66-1.87-19-2.81-10.06-1.49-20.21-3.42-30.43-2.96-8.74.39-17.88,2.83-23.39,10.1-.08.11-.18.17-.28.24-.05.17-.14.34-.31.5-9.45,8.59-22.29,13.07-35.06,12.13-.46-.03-1.05-.33-1.12-.85-.42-3.05-.83-6.11-1.25-9.16-.71-5.21-1.72-10.47-1.97-15.74-.19-3.81.05-7.85,1.47-11.43,1.28-3.23,3.62-5.91,7.05-6.89,4.55-1.3,8.97.91,13.29,2.02,3.96,1.01,8.1.55,10.29-3.26,1.81-3.14,1.86-7.17,1.12-10.63-1.93-8.98-10.23-15.07-12.32-24.07-2.34-10.03,4.18-18.86,10.55-25.89,3.98-4.4,8.09-8.69,12.13-13.03,3.45-3.69,6.89-7.42,10.9-10.53,3.67-2.84,7.85-5.2,12.49-5.92,5.16-.81,10.14.56,15.05,2.02,5.41,1.6,10.65,2.77,16.3,1.69,5.53-1.06,10.66-3.53,15.53-6.26,16.09-9.03,31.17-22.23,37.41-40C427.78,26.08,366.41,4.08,300,4.08c-14.7,0-29.15,1.09-43.28,3.17-1.17,1.01-2.33,2.04-3.46,3.1-13.63,12.82-26.04,30.27-27.57,49.47-.4,4.98.2,9.79,1.07,14.69.91,5.15,1.88,10.36,1.47,15.61-.66,8.6-4.4,16.7-9.99,23.21-12.74,14.86-33.47,18.93-51.96,14.52-5.17-1.23-9.94-3.34-14.85-5.33-5.29-2.14-10.44-3.24-16.13-2.17-5.45,1.02-10.77,2.93-16.04,4.61-5.36,1.71-10.69,3.48-16,5.33-20.85,7.25-41.31,15.6-61.3,24.97C18.1,197.66,4.37,246.49,4.1,298.45c.25-.1.53-.14.88,0,2.84,1.1,5.61,2.35,8.29,3.79,23.01,12.35,37.88,35.12,59.52,49.34,6,3.95,12.42,6.89,19.18,9.29,7.21,2.56,14.6,4.74,21.48,8.13,6.4,3.16,12.17,7.49,17.04,12.7,2.44,2.61,4.67,5.44,6.67,8.4,1.92,2.86,3.4,5.94,5.18,8.88.85,1.4,1.89,2.96,3.38,3.76.66.36,1.25.4,1.99.47.84.08,1.33.44,2.06.88,3.82,2.36,7.64,4.72,11.45,7.07,6,3.7,12.01,7.4,17.83,11.37,10.92,7.46,21.49,15.97,29.07,26.94,3.78,5.48,6.71,11.57,8.4,18.01,2.01,7.67,2.35,15.66,2.33,23.56-.02,8.06-.4,16.13.3,24.17.37,4.22,1.14,8.34,2.24,12.42,1.05,3.88,2.08,7.94.88,11.92-1.02,3.37-3.28,6.2-4.22,9.6-.93,3.36-.63,6.89.44,10.17,2.09,6.4,6.9,12.21,12.38,16.05,5.06,3.54,10.87,5.92,16.39,8.63,5.13,2.51,10.51,5.23,14.49,9.43,12.52,1.62,25.28,2.47,38.24,2.47,163.17,0,295.92-132.75,295.92-295.92,0-26.42-3.5-52.04-10.03-76.43-1.34.71-2.79,1.18-4.32,1.39ZM317.42,52.83c.58-3.54,1.73-6.96,3.34-10.16.14-.28.4-.45.68-.56.05-.02.09-.06.13-.07.25-.07.49-.04.7.02.12.03.24.05.34.11.27.16.44.4.54.66.03.05.07.1.09.15.12.33.25.65.37.98.54-.06,1.11.03,1.67.29,1.42.65,2.02,2.15,1.65,3.63-.42,1.65-1.84,2.77-3.14,3.74-1.38,1.03-2.85,1.94-4.39,2.72-1.12.57-2.19-.36-2-1.54ZM316.71,74.15c1.04-4.2,2.33-8.46,4.62-12.17,1.78-2.88,5.5-7.62,9.4-7.08,1.99.28,2.84,2.08,3.48,3.76.85,2.22,1.26,4.64,1.21,7.02-.03,1.25-.18,2.51-.44,3.74-.12.53-.22,1.14-.44,1.64,0,0-.35.73-.28.46,0-.01-.06-.13-.07.03-.06.88.54,2.09.76,2.96.82,5.75.33,11.61-1.72,17.06-.78,2.08-1.7,4.65-3.7,5.88-.8.49-1.78.71-2.7.53-.54-.11-1.03-.49-1.56-.57-1.06-.17-1.21.5-1.53,1.35-1.45,3.77-2.41,9.59-6.24,11.78-3.19,1.83-7.55.1-7.44-3.87.07-2.59.91-5.28,1.4-7.82.55-2.84,1.1-5.67,1.68-8.5,1.1-5.42,2.23-10.84,3.56-16.21ZM288.23,87.19c1.71-10.25,7.36-19.49,15.52-25.87,0,0,0-.01.02-.02.85-.77,1.69-1.54,2.54-2.31.29-.26.58-.59.91-.81.83-.53,1.86-.19,2.52.5,1.13,1.17,1.02,3,.5,4.41-.2.53-.63,1.26-.61,1.85.02.61.41.91.81,1.29.65.63,1.24,1.31,1.65,2.12,1.8,3.56.76,7.8-1.56,10.85-2.51,3.31-6.31,6.04-9.87,8.13-3.61,2.12-7.86,3.43-11.79,1.39-.57-.29-.72-.96-.63-1.54ZM308.87,93.13c-.57,2.62-1.14,5.24-1.72,7.85-.41,1.89-.65,3.95-1.8,5.58-1.02,1.45-2.78,2.57-4.49,1.5-.9-.56-1.09-2.06-1.29-3.04-.21-1.06-.33-2.14-.35-3.22-.04-2.16.33-4.35,1.08-6.38.41-1.02.82-2.03,1.23-3.05.23-.56.66-1,1.31-1,1.57.01,3.14.03,4.71.04.92,0,1.5.86,1.31,1.72ZM509.47,349.69c1.43,1.93,1.53,5.28,1.9,7.57.63,3.9,1.35,7.78,1.74,11.72,1.04,10.41.5,20.98-1.51,31.24-2,10.2-5.55,19.97-10.34,29.17-2.41,4.63-5.04,9.19-7.02,14.03-2.13,5.22-3.15,10.55-3.37,16.17-.22,5.63.03,11.29-.74,16.89-.63,4.6-2.04,9.06-4.12,13.21-2.08,4.15-4.85,7.97-8.16,11.23-3.65,3.6-7.99,6.35-12.43,8.88-5.11,2.9-10.26,5.74-15.39,8.61-4.48,2.5-9.77,4.76-13.15,8.75-5.7,6.72-5.28,16.63-11.03,23.4-2.91,3.42-7.05,5.46-11.24,6.87-5.08,1.72-10.4,2.85-15.62,4.06-11.26,2.61-22.63,4.75-34.07,6.46-1.26.19-2.37-1.23-1.32-2.28,3.84-3.82,6.32-8.63,7.58-13.87,6.13-25.4-13.87-46.72-21.1-69.46-1.93-6.07-3.17-12.49-2.98-18.88.09-3.04.49-6.1,1.28-9.04.82-3.06,2.19-5.87,3.49-8.74,1.31-2.89,2.19-5.83,1.88-9.03-.27-2.82-1.38-5.53-2.89-7.91-3.37-5.29-8.79-8.68-14.54-10.89-3-1.15-6.09-2.04-9.2-2.85-2.91-.76-6.03-1.85-9.07-1.71-3.4.15-5.11,2.52-6.93,5.06-1.38,1.93-2.93,3.65-4.8,5.12-7.12,5.57-17.2,6.95-25.7,4.09-4.25-1.43-8.17-3.92-11.02-7.42-3.44-4.22-5.58-10.05-10.49-12.86-2.53-1.45-5.48-1.92-8.24-2.75-2.75-.82-5.28-2.03-7.32-4.09-4.14-4.17-6.69-10.3-8.72-15.73-4.32-11.54-5.6-24.16-3.78-36.34,1.98-13.23,8.09-25.28,14.3-36.97,2.56-4.81,5.17-9.97,9.43-13.52,4.67-3.88,10.03-4.11,15.82-3.3,3.08.43,6.14.93,9.26.6,2.22-.24,4.41-.86,6.49-1.67,4.2-1.65,8.02-4.21,11.7-6.8,7.18-5.06,14.5-11.38,23.42-12.95,5.36-.95,10.21.38,15.25,2.18,5.21,1.86,10.18,2.87,15.6,1.34,9.45-2.66,16.92-10.05,24.93-15.35,4.07-2.69,8.43-5.08,13.17-6.34,4.81-1.27,9.8-1.32,14.69-.49,10.33,1.76,19.7,7.13,28.97,11.72,4.87,2.4,9.8,4.72,14.98,6.39,2.54.82,5.13,1.48,7.76,1.9,2.9.46,5.84.44,8.74.81,2.89.36,5.53,1.2,7.88,2.97,2.3,1.73,4.27,3.75,6.83,5.11,4.61,2.43,9.95,3.03,15.08,3.3,10,.54,21.22-.35,29.67,6.04.63.48.83,1.14.49,1.86-2.32,4.92-4.72,9.8-6.96,14.75-3.19,7.06-5.6,14.31-6.92,21.95-1,5.82-1.56,11.72-2.33,17.58.06.06.12.12.17.19ZM554.83,389.03c-1.87,5.39-5.51,9.85-6.89,15.45-1.37,5.57-1.45,11.37-2.96,16.9-1.44,5.29-4.26,10.05-7.49,14.44-1.63,2.21-3.33,4.38-5.09,6.49-1.32,1.59-3.04,3.27-5.27,3.19-4.58-.16-4.42-5.87-3.71-9.05,1.42-6.29,2.9-12.56,4.34-18.84,2.9-12.56,5.79-25.12,8.68-37.67.27-1.15,1.53-1.18,2.22-.56,3.19-5.56,5.43-11.55,6.69-17.85.21-1.06,1.57-1.24,2.28-.6,7.55,6.92,10.56,18.38,7.19,28.1Z"/>
      <path class="st9" d="M540.51,381.66c-.43.72-1.19.77-1.77.47-2.81,12.18-5.62,24.36-8.42,36.54-1.27,5.51-2.54,11.02-3.81,16.52-.45,1.94-1.3,4.38-.59,6.37.97,2.69,3.53.07,4.56-1.18,3.21-3.87,6.35-7.88,8.79-12.28,2.48-4.48,3.68-9.22,4.39-14.25.71-4.97,1.19-10.03,3.16-14.7,1.93-4.56,5.01-8.52,6.1-13.43,1.65-7.41-.5-15.41-5.48-21.08-1.45,5.98-3.79,11.7-6.95,17Z"/>
      <path d="M300,0c-80.13,0-155.47,31.21-212.13,87.87C31.21,144.53,0,219.87,0,300s31.21,155.47,87.87,212.13c56.66,56.66,132,87.87,212.13,87.87s155.47-31.21,212.13-87.87c56.66-56.66,87.87-132,87.87-212.13s-31.21-155.47-87.87-212.13C455.47,31.21,380.13,0,300,0ZM300,595.92c-12.96,0-25.72-.84-38.24-2.47-3.98-4.2-9.36-6.91-14.49-9.43-5.52-2.7-11.33-5.09-16.39-8.63-5.48-3.83-10.29-9.64-12.38-16.05-1.07-3.29-1.37-6.81-.44-10.17.94-3.4,3.2-6.23,4.22-9.6,1.2-3.98.18-8.03-.88-11.92-1.11-4.09-1.87-8.2-2.24-12.42-.7-8.04-.32-16.12-.3-24.17.02-7.89-.32-15.88-2.33-23.56-1.69-6.44-4.62-12.54-8.4-18.01-7.58-10.98-18.15-19.48-29.07-26.94-5.82-3.98-11.83-7.67-17.83-11.37-3.82-2.36-7.64-4.72-11.45-7.07-.72-.45-1.21-.8-2.06-.88-.73-.07-1.32-.11-1.99-.47-1.49-.8-2.53-2.35-3.38-3.76-1.78-2.93-3.26-6.02-5.18-8.88-2-2.97-4.23-5.79-6.67-8.4-4.87-5.21-10.64-9.55-17.04-12.7-6.89-3.39-14.27-5.57-21.48-8.13-6.76-2.4-13.18-5.35-19.18-9.29-21.63-14.23-36.5-36.99-59.52-49.34-2.68-1.44-5.45-2.7-8.29-3.79-.34-.13-.63-.1-.88,0,.27-51.96,14-100.79,37.88-143.19,19.99-9.37,40.45-17.72,61.3-24.97,5.31-1.85,10.64-3.62,16-5.33,5.27-1.68,10.59-3.59,16.04-4.61,5.69-1.06,10.84.03,16.13,2.17,4.91,1.99,9.68,4.09,14.85,5.33,18.49,4.41,39.22.34,51.96-14.52,5.59-6.51,9.33-14.61,9.99-23.21.4-5.25-.56-10.46-1.47-15.61-.87-4.9-1.47-9.71-1.07-14.69,1.53-19.2,13.94-36.64,27.57-49.47,1.13-1.06,2.29-2.09,3.46-3.1,14.13-2.08,28.58-3.17,43.28-3.17,66.41,0,127.78,21.99,177.21,59.08-6.24,17.77-21.32,30.97-37.41,40-4.87,2.74-10,5.2-15.53,6.26-5.65,1.08-10.89-.09-16.3-1.69-4.91-1.45-9.89-2.83-15.05-2.02-4.64.73-8.83,3.08-12.49,5.92-4.01,3.11-7.45,6.83-10.9,10.53-4.05,4.34-8.15,8.63-12.13,13.03-6.36,7.03-12.88,15.86-10.55,25.89,2.1,9,10.39,15.09,12.32,24.07.74,3.45.69,7.49-1.12,10.63-2.19,3.8-6.33,4.27-10.29,3.26-4.33-1.1-8.74-3.32-13.29-2.02-3.43.98-5.77,3.66-7.05,6.89-1.42,3.58-1.65,7.62-1.47,11.43.26,5.26,1.26,10.52,1.97,15.74.42,3.05.83,6.11,1.25,9.16.07.52.66.82,1.12.85,12.77.95,25.61-3.53,35.06-12.13.17-.16.26-.33.31-.5.1-.07.19-.14.28-.24,5.51-7.26,14.65-9.71,23.39-10.1,10.22-.46,20.37,1.47,30.43,2.96,6.33.94,12.66,1.87,19,2.81,6.05.89,12.19,2.18,18.31,2.34,2.93.08,5.82-.27,8.66-1.02,2.8-.74,5.51-1.76,8.32-2.48,4.53-1.16,9.25-1.43,13.89-.89,9.38,1.09,18.41,5.52,24.84,12.43,2.99,3.21,5.44,8.91,10.76,6.73,2.44-1,4.64-2.81,6.71-4.4,2.06-1.59,4.04-3.28,5.93-5.08,3.87-3.7,7.32-7.82,10.29-12.27,2.9-4.34,5.42-9.42,4.15-14.75-1.17-4.92-5.11-8.62-6.3-13.51-.52-2.12-.58-4.65.8-6.47,1.36-1.8,3.64-2.19,5.74-1.63,5.33,1.43,7.02,6.89,7.65,11.77.66,5.19.95,10.35,2.68,15.35,1.55,4.48,4.06,8.75,7.92,11.6,3.51,2.59,8.09,3.97,12.45,3.37,1.52-.21,2.98-.68,4.32-1.39,6.53,24.39,10.03,50.01,10.03,76.43,0,163.17-132.75,295.92-295.92,295.92ZM224.65,78.12c.87,5.08,1.39,10.22.44,15.33-.8,4.29-2.38,8.38-4.6,12.13-4.54,7.69-11.57,13.82-19.76,17.36-9.45,4.08-20.21,4.84-30.28,3.02-5.14-.93-10.04-2.57-14.84-4.61-4.72-2-9.5-4.05-14.7-4.19-5.43-.15-10.72,1.58-15.85,3.15-5.37,1.65-10.73,3.37-16.06,5.16-21.21,7.13-42.05,15.37-62.4,24.66-.76.35-1.52.71-2.28,1.06C87.93,76.53,163.3,22.6,251.77,8.04c-12.27,11.35-22.73,25.7-27.07,41.86-1.16,4.33-1.85,8.83-1.88,13.32-.04,5.04.98,9.96,1.83,14.91ZM216.05,507.84c.09,4.03.34,8.05.92,12.03.57,3.98,1.74,7.76,2.62,11.66.5,2.23.78,4.54.22,6.78-.47,1.88-1.45,3.58-2.33,5.29-1.5,2.91-2.58,5.87-2.69,9.18-.22,6.73,3.12,13.11,7.34,18.14,8.31,9.92,20.93,13.08,31.59,19.64,1.11.68,2.19,1.41,3.22,2.2C114.41,571.9,4.58,449.08,4.1,300.97c.06.03.09.08.16.1,24.52,9.47,40.14,32.27,60.32,47.94,4.98,3.87,10.26,7.38,15.95,10.12,6.89,3.33,14.24,5.5,21.43,8.06,7.21,2.57,14.17,5.71,20.2,10.51,5.61,4.47,10.37,9.98,14.12,16.08,1.75,2.85,3.06,6.02,5.13,8.66.81,1.03,1.76,2.01,2.92,2.65,1.31.73,2.79.63,4.05,1.35,7.04,4.06,13.92,8.53,20.79,12.88,11.42,7.24,22.76,15.08,31.72,25.31,4.3,4.91,7.99,10.42,10.56,16.44,3.04,7.15,4.22,14.84,4.55,22.56.34,8.06-.13,16.13.05,24.2ZM585.26,221.24c-3.7,2.14-8.28,1.9-12.13.06-4.65-2.23-7.7-6.53-9.45-11.27-1.84-4.99-2.17-10.16-2.83-15.38-.6-4.75-1.9-9.72-6.11-12.53-3.35-2.23-8.23-2.69-11.11.56-2.9,3.28-2.15,8.23-.5,11.9,2.21,4.91,6.44,9.17,5.33,14.96-1.03,5.4-5,10.37-8.46,14.49-3.46,4.13-7.38,7.9-11.69,11.14-1.03.78-2.09,1.53-3.16,2.25-1.29.86-2.98,2.11-4.63,1.71-1.26-.31-2.11-1.54-2.83-2.52-.69-.93-1.38-1.85-2.14-2.73-5.99-7.03-14.52-11.84-23.56-13.72-4.5-.94-9.14-1.17-13.7-.59-5.43.69-10.39,3.01-15.74,3.98-6.33,1.14-12.95-.38-19.21-1.31-6.24-.92-12.48-1.85-18.71-2.77-10.5-1.55-21.11-3.66-31.76-3.74-8.56-.06-17.69,1.3-24.57,6.77-1.66,1.32-3.09,2.85-4.37,4.54-.05.07-.06.13-.09.2-.04.03-.09.04-.13.08-8.77,7.97-20.58,12.1-32.4,11.5-.8-5.84-1.59-11.68-2.39-17.52-.57-4.21-1.04-8.48-.35-12.71.56-3.43,1.91-7.2,5.24-8.84,4.23-2.09,8.97.38,13.12,1.48,3.86,1.02,8.01,1,11.14-1.78,2.53-2.25,3.58-5.72,3.81-9,.25-3.67-.54-7.47-2.17-10.76-2.13-4.31-5.23-8.06-7.65-12.19-2.51-4.28-4.07-8.99-3.07-13.97.98-4.9,3.82-9.23,6.93-13.06,3.53-4.35,7.51-8.35,11.33-12.44,3.7-3.96,7.3-8.06,11.3-11.74,3.53-3.25,7.53-6.26,12.19-7.67,5.21-1.58,10.32-.47,15.41,1.02,5.14,1.51,10.22,3,15.64,2.49,5.39-.51,10.5-2.47,15.31-4.87,16.69-8.36,32.8-21.43,40.54-38.77.56-1.25,1.06-2.52,1.53-3.8,50.74,38.72,88.64,93.45,106.09,156.58Z"/>
      <path d="M518.56,309.96c2.24-4.95,4.64-9.84,6.96-14.75.34-.73.14-1.38-.49-1.86-8.45-6.39-19.67-5.5-29.67-6.04-5.13-.28-10.47-.87-15.08-3.3-2.57-1.35-4.54-3.38-6.83-5.11-2.35-1.77-4.99-2.61-7.88-2.97-2.91-.36-5.85-.34-8.74-.81-2.63-.42-5.23-1.09-7.76-1.9-5.18-1.67-10.11-3.98-14.98-6.39-9.27-4.58-18.65-9.95-28.97-11.72-4.89-.83-9.88-.79-14.69.49-4.74,1.25-9.1,3.65-13.17,6.34-8.01,5.3-15.48,12.69-24.93,15.35-5.42,1.53-10.39.52-15.6-1.34-5.04-1.8-9.89-3.13-15.25-2.18-8.92,1.57-16.24,7.89-23.42,12.95-3.67,2.59-7.49,5.15-11.7,6.8-2.08.82-4.26,1.44-6.49,1.67-3.11.33-6.18-.16-9.26-.6-5.79-.81-11.15-.58-15.82,3.3-4.27,3.55-6.88,8.71-9.43,13.52-6.21,11.69-12.32,23.74-14.3,36.97-1.82,12.18-.55,24.8,3.78,36.34,2.03,5.42,4.58,11.56,8.72,15.73,2.04,2.06,4.57,3.27,7.32,4.09,2.76.83,5.71,1.29,8.24,2.75,4.9,2.81,7.05,8.64,10.49,12.86,2.85,3.49,6.76,5.99,11.02,7.42,8.51,2.86,18.59,1.48,25.7-4.09,1.87-1.47,3.41-3.19,4.8-5.12,1.82-2.53,3.54-4.91,6.93-5.06,3.04-.14,6.16.95,9.07,1.71,3.11.81,6.2,1.7,9.2,2.85,5.75,2.21,11.17,5.59,14.54,10.89,1.51,2.38,2.62,5.09,2.89,7.91.31,3.2-.57,6.14-1.88,9.03-1.3,2.87-2.67,5.68-3.49,8.74-.79,2.94-1.19,5.99-1.28,9.04-.18,6.39,1.05,12.81,2.98,18.88,7.23,22.74,27.23,44.06,21.1,69.46-1.27,5.24-3.74,10.05-7.58,13.87-1.05,1.04.06,2.46,1.32,2.28,11.43-1.71,22.8-3.86,34.07-6.46,5.22-1.21,10.54-2.34,15.62-4.06,4.19-1.41,8.33-3.45,11.24-6.87,5.75-6.77,5.34-16.68,11.03-23.4,3.39-4,8.67-6.25,13.15-8.75,5.13-2.87,10.28-5.7,15.39-8.61,4.44-2.52,8.78-5.27,12.43-8.88,3.3-3.26,6.08-7.08,8.16-11.23,2.08-4.15,3.48-8.61,4.12-13.21.77-5.6.52-11.25.74-16.89.22-5.62,1.23-10.96,3.37-16.17,1.98-4.84,4.6-9.4,7.02-14.03,4.79-9.21,8.34-18.98,10.34-29.17,2.01-10.27,2.55-20.83,1.51-31.24-.39-3.94-1.11-7.82-1.74-11.72-.37-2.28-.47-5.64-1.9-7.57-.05-.07-.11-.13-.17-.19.77-5.86,1.33-11.76,2.33-17.58,1.32-7.65,3.73-14.89,6.92-21.95ZM510.47,369.87c.91,9.98.4,20.09-1.56,29.92-1.96,9.87-5.37,19.31-10.01,28.23-4.58,8.8-9.46,17.32-10.48,27.38-.54,5.39-.26,10.81-.56,16.21-.27,4.86-1.16,9.61-3.02,14.13-3.74,9.08-10.54,15.69-18.89,20.61-4.73,2.78-9.57,5.39-14.36,8.06-4.51,2.52-9.38,4.79-13.51,7.93-7.13,5.41-7.88,13.99-11.34,21.61-2.11,4.64-5.52,7.84-10.2,9.84-5.08,2.18-10.69,3.27-16.04,4.54-10.73,2.54-21.56,4.65-32.46,6.37,5.67-7.39,7.5-17.1,6.75-26.35-1-12.26-6.51-23.41-12.01-34.2-5.93-11.61-12.15-23.6-12.91-36.87-.39-6.69.91-12.86,3.73-18.91,2.44-5.24,3.86-10.36,1.97-16.04-3.92-11.75-15.85-16.79-26.88-19.73-5.19-1.38-11.82-3.84-16.47.15-2,1.72-3.19,4.14-4.93,6.09-1.5,1.69-3.27,3.1-5.22,4.22-7.87,4.52-18.44,4.31-26.02-.72-4.42-2.93-6.68-7.53-9.69-11.71-1.56-2.16-3.34-4.18-5.64-5.57-2.4-1.45-5.17-2.06-7.84-2.79-2.97-.81-5.65-1.84-7.78-4.15-2.07-2.25-3.54-5.1-4.89-7.81-2.83-5.69-4.83-11.77-6.02-18.01-2.42-12.7-1.12-25.67,3.29-37.78,2.32-6.35,5.34-12.43,8.47-18.41,2.62-5,5.08-10.49,9.01-14.64,1.9-2,4.18-3.6,6.88-4.27,3.34-.82,6.84-.15,10.19.32,5.07.71,9.83.58,14.66-1.24,8.54-3.22,15.38-9.52,22.95-14.4,3.69-2.38,7.63-4.5,11.97-5.38,5.58-1.13,10.55.77,15.77,2.56,4.89,1.68,9.79,2.31,14.85,1.06,4.47-1.1,8.58-3.38,12.39-5.9,8.17-5.41,15.67-12.65,25.21-15.63,10.01-3.13,20.22-.13,29.45,4.02,9.69,4.37,18.89,9.94,29.05,13.21,5.34,1.72,10.57,2.15,16.1,2.68,3.37.32,6.07,1.37,8.66,3.57,2.03,1.73,4.01,3.39,6.43,4.57,9.37,4.56,20.23,3,30.27,4.09,4.56.5,9.01,1.68,12.83,4.22-3.58,7.52-7.42,14.99-10.19,22.86-2.84,8.08-3.94,16.43-4.91,24.9-.28,2.44-.67,4.87-1.01,7.31-.02.12,0,.23.02.34,0,.06,0,.11,0,.17.01.06.03.12.05.18.13.43.44.8.83.97.04.1.08.19.1.26.19.58.32,1.17.44,1.77.32,1.46.56,2.93.79,4.4.63,3.91,1.35,7.79,1.71,11.74Z"/>
      <path d="M547.64,360.94c-.7-.64-2.06-.46-2.28.6-1.26,6.3-3.51,12.28-6.69,17.85-.68-.62-1.95-.59-2.22.56-2.89,12.56-5.79,25.12-8.68,37.67-1.45,6.28-2.93,12.55-4.34,18.84-.72,3.18-.88,8.89,3.71,9.05,2.23.08,3.95-1.6,5.27-3.19,1.76-2.11,3.46-4.28,5.09-6.49,3.23-4.39,6.05-9.15,7.49-14.44,1.51-5.54,1.59-11.34,2.96-16.9,1.38-5.6,5.02-10.06,6.89-15.45,3.37-9.72.36-21.18-7.19-28.1ZM552.93,385.74c-1.09,4.91-4.17,8.87-6.1,13.43-1.98,4.67-2.46,9.73-3.16,14.7-.71,5.04-1.91,9.78-4.39,14.25-2.44,4.4-5.59,8.41-8.79,12.28-1.03,1.25-3.59,3.87-4.56,1.18-.72-1.99.14-4.43.59-6.37,1.27-5.51,2.54-11.02,3.81-16.52,2.81-12.18,5.62-24.36,8.42-36.54.58.3,1.34.25,1.77-.47,3.16-5.3,5.5-11.02,6.95-17,4.97,5.67,7.13,13.66,5.48,21.08Z"/>
      <path d="M310.07,106.69c-.11,3.96,4.25,5.7,7.44,3.87,3.83-2.2,4.79-8.02,6.24-11.78.33-.85.47-1.52,1.53-1.35.53.08,1.02.47,1.56.57.93.19,1.9-.03,2.7-.53,2-1.23,2.91-3.8,3.7-5.88,2.05-5.46,2.54-11.32,1.72-17.06-.22-.87-.82-2.08-.76-2.96.01-.16.07-.05.07-.03-.07.27.28-.46.28-.46.22-.5.33-1.11.44-1.64.27-1.22.42-2.48.44-3.74.05-2.38-.36-4.8-1.21-7.02-.65-1.68-1.49-3.49-3.48-3.76-3.9-.54-7.61,4.19-9.4,7.08-2.29,3.71-3.58,7.97-4.62,12.17-1.33,5.37-2.46,10.79-3.56,16.21-.57,2.83-1.13,5.67-1.68,8.5-.49,2.54-1.33,5.23-1.4,7.82ZM314.03,99.91c.44-2.29.89-4.58,1.35-6.87.91-4.58,1.87-9.15,2.9-13.7,1.6-7.02,3.15-15.34,8.99-20.21.66-.55,1.74-1.53,2.67-1.54,1.33-.02,1.7,1.84,2.02,2.86.7,2.22.92,4.61.63,6.92-.21,1.65-1.34,3.46-.98,5.07.21.94.48,1.86.72,2.79.62,4.35.33,8.81-.87,13.04-.55,1.95-1.21,4.11-2.35,5.8-.65.96-1.18,1.4-2.32,1.04-.81-.25-1.49-.68-2.38-.6-1.52.14-2.38,1.35-2.94,2.64-.89,2.03-1.54,4.19-2.32,6.27-.6,1.63-1.28,3.62-2.79,4.63-1.43.96-3.59.65-3.57-1.36.02-2.19.82-4.62,1.24-6.77Z"/>
      <path d="M302.85,91.37c-.65,0-1.09.44-1.31,1-.41,1.02-.82,2.03-1.23,3.05-.75,2.03-1.11,4.21-1.08,6.38.02,1.08.14,2.16.35,3.22.19.98.38,2.47,1.29,3.04,1.72,1.07,3.47-.05,4.49-1.5,1.15-1.62,1.38-3.68,1.8-5.58.57-2.62,1.14-5.24,1.72-7.85.19-.86-.39-1.72-1.31-1.72-1.57-.01-3.14-.03-4.71-.04ZM304.29,101.34c-.25,1.13-.39,2.33-.97,3.35-.2.35-.47.71-.75.95,0,0,0,0-.02.01-.88-3.14-.76-6.42.38-9.51.27-.68.55-1.36.82-2.04.71,0,1.41.01,2.12.02-.53,2.41-1.05,4.82-1.58,7.23Z"/>
      <path d="M288.86,88.73c3.94,2.04,8.18.73,11.79-1.39,3.56-2.09,7.36-4.82,9.87-8.13,2.32-3.05,3.36-7.29,1.56-10.85-.41-.81-1-1.49-1.65-2.12-.4-.39-.78-.69-.81-1.29-.02-.58.41-1.32.61-1.85.52-1.41.63-3.24-.5-4.41-.66-.68-1.68-1.03-2.52-.5-.33.21-.62.54-.91.81-.85.77-1.69,1.54-2.54,2.31,0,0,0,.01-.02.02-8.16,6.38-13.81,15.62-15.52,25.87-.1.58.06,1.24.63,1.54ZM305.42,63.44c.05-.04.1-.09.14-.13.04-.03.09-.04.13-.08.74-.67,1.48-1.34,2.21-2.01-.08,1.02-.91,2.89-.96,3.29-.22,1.75.69,2.78,1.84,3.94,2.42,2.46,1.55,6.36-.25,8.9-2.01,2.83-5.18,5.04-8.06,6.91-2.69,1.75-6.18,3.58-9.39,2.49,1.82-9.17,6.89-17.58,14.34-23.29Z"/>
      <path d="M319.42,54.36c1.54-.78,3.01-1.69,4.39-2.72,1.3-.97,2.72-2.09,3.14-3.74.37-1.48-.23-2.99-1.65-3.63-.56-.26-1.14-.35-1.67-.29-.12-.33-.25-.65-.37-.98-.02-.06-.06-.1-.09-.15-.1-.26-.27-.5-.54-.66-.1-.06-.23-.08-.34-.11-.22-.06-.45-.09-.7-.02-.05.01-.09.05-.13.07-.28.1-.54.28-.68.56-1.61,3.2-2.76,6.62-3.34,10.16-.19,1.18.88,2.1,2,1.54ZM323.91,46.64s0,0,0,0c0,0,0,0,0,0ZM324.22,47.45c-.07.13-.14.26-.23.38-.02.03-.04.06-.06.09,0,0-.02.02-.05.06-.71.84-1.65,1.48-2.55,2.09-.2.14-.42.26-.63.4.33-1.25.72-2.47,1.19-3.67.58.67,1.59.63,2.12-.12.03.01.06.02.08.03-.02,0-.04-.02-.07-.04,0,0,0,0,0,0,.06.04.13.09.2.11,0,0,0,0,0,0,.01.01.05.05.09.09,0,0,0,.02.01.03,0,0,0,.02,0,.02,0,.01,0,.14,0,.21-.01.02-.04.14-.05.18-.03.09-.03.09,0,0l-.06.13Z"/>
      <path d="M324.1,46.71s.04.02,0,0h0Z"/>
    </g>
  </g>
  <g id="Layer_3" class="st6">
    <path class="st0" d="M451.82,338.1l-1.16-.15c.04.07.08.14.12.21,0,.1.09.28.13.38.14.42.23.86.33,1.3.23,1.07.41,2.15.58,3.23.46,2.87.99,5.72,1.25,8.62.67,7.33.29,14.76-1.14,21.98-1.44,7.25-3.94,14.19-7.35,20.74-3.37,6.46-6.95,12.73-7.7,20.12-.4,3.96-.19,7.94-.41,11.91-.2,3.57-.85,7.06-2.22,10.38-2.74,6.67-7.74,11.53-13.88,15.14-3.47,2.05-7.03,3.96-10.55,5.92-3.32,1.85-6.89,3.52-9.92,5.82-5.24,3.97-5.79,10.28-8.33,15.88-1.55,3.41-4.06,5.76-7.49,7.23-3.73,1.6-7.85,2.4-11.79,3.33-8.82,2.09-17.72,3.8-26.68,5.13l.97,1.67c5.63-5.6,7.45-13.76,6.82-21.48-.73-9-4.78-17.2-8.83-25.12-4.35-8.53-8.92-17.34-9.49-27.09-.28-4.91.67-9.45,2.74-13.9,1.79-3.85,2.84-7.61,1.44-11.79-2.88-8.63-11.64-12.33-19.75-14.49-3.82-1.02-8.68-2.82-12.1.11-1.47,1.26-2.34,3.04-3.62,4.47-1.1,1.24-2.4,2.28-3.84,3.1-5.78,3.32-13.54,3.17-19.12-.53-3.25-2.15-4.9-5.53-7.12-8.6-1.14-1.59-2.45-3.07-4.15-4.09s-3.79-1.52-5.76-2.05c-2.18-.59-4.15-1.35-5.72-3.05s-2.6-3.74-3.59-5.74c-2.08-4.18-3.55-8.65-4.42-13.23-1.78-9.33-.82-18.86,2.42-27.76,1.7-4.67,3.92-9.13,6.22-13.52,1.93-3.68,3.74-7.71,6.62-10.76,1.39-1.47,3.07-2.65,5.06-3.13,2.46-.6,5.03-.11,7.48.24,3.73.52,7.22.43,10.77-.91,6.27-2.37,11.3-6.99,16.86-10.58,2.71-1.75,5.6-3.31,8.79-3.95,4.1-.83,7.75.56,11.58,1.88,3.59,1.24,7.19,1.7,10.91.78,3.28-.81,6.3-2.48,9.1-4.34,6.01-3.97,11.52-9.29,18.52-11.48,7.36-2.3,14.85-.1,21.63,2.96,7.12,3.21,13.87,7.3,21.34,9.71,3.92,1.26,7.76,1.58,11.83,1.97,2.47.24,4.46,1.01,6.36,2.62,1.49,1.27,2.95,2.49,4.72,3.36,6.88,3.35,14.86,2.2,22.24,3.01,3.66.4,7.22,1.38,10.19,3.62l-.36-1.37c-2.74,5.81-5.75,11.56-7.89,17.64s-2.9,12.07-3.61,18.3c-.2,1.79-.49,3.58-.74,5.37-.17,1.26,1.75,1.8,1.93.53.64-4.61,1.04-9.27,1.83-13.85.97-5.62,2.74-10.94,5.09-16.13,1.64-3.64,3.41-7.23,5.11-10.84.25-.53.11-1.02-.36-1.37-6.21-4.69-14.45-4.04-21.8-4.44-3.77-.2-7.69-.64-11.08-2.43-1.89-.99-3.33-2.48-5.02-3.75s-3.66-1.92-5.79-2.18-4.3-.25-6.42-.59c-1.93-.31-3.84-.8-5.7-1.4-3.8-1.23-7.43-2.92-11-4.69-6.81-3.37-13.7-7.31-21.28-8.61-3.59-.61-7.26-.58-10.79.36s-6.69,2.68-9.67,4.66c-5.89,3.89-11.37,9.32-18.31,11.28-3.98,1.12-7.64.38-11.46-.98s-7.26-2.3-11.2-1.6c-6.55,1.16-11.93,5.79-17.21,9.51-2.7,1.9-5.51,3.78-8.59,5-1.53.6-3.13,1.06-4.77,1.23-2.29.24-4.54-.12-6.8-.44-4.25-.6-8.19-.43-11.62,2.42-3.14,2.61-5.05,6.4-6.93,9.93-4.56,8.58-9.05,17.44-10.5,27.16-1.34,8.95-.4,18.22,2.77,26.7,1.49,3.98,3.36,8.49,6.41,11.55,1.5,1.51,3.36,2.4,5.38,3s4.2.95,6.05,2.02c3.6,2.07,5.18,6.35,7.7,9.45,2.09,2.57,4.97,4.4,8.09,5.45,6.25,2.1,13.65,1.09,18.88-3.01,1.38-1.08,2.51-2.34,3.52-3.76,1.34-1.86,2.6-3.6,5.09-3.72,2.23-.1,4.53.7,6.66,1.26,2.28.6,4.55,1.25,6.76,2.09,4.23,1.62,8.21,4.11,10.68,8,1.11,1.75,1.93,3.74,2.12,5.81.23,2.35-.42,4.51-1.38,6.64s-1.96,4.17-2.56,6.42-.88,4.4-.94,6.64c-.14,4.7.77,9.41,2.19,13.87,5.31,16.7,20.01,32.37,15.5,51.03-.93,3.85-2.75,7.39-5.57,10.19-.77.77.05,1.81.97,1.67,8.4-1.26,16.75-2.83,25.03-4.75,3.84-.89,7.74-1.72,11.48-2.98,3.08-1.04,6.12-2.53,8.26-5.05,4.23-4.97,3.92-12.25,8.1-17.19,2.49-2.94,6.37-4.59,9.66-6.43,3.77-2.11,7.56-4.19,11.31-6.32,3.26-1.85,6.45-3.87,9.13-6.52,2.43-2.39,4.47-5.2,5.99-8.25s2.56-6.32,3.02-9.71c.57-4.11.38-8.27.54-12.41s.91-8.05,2.47-11.88c1.46-3.56,3.38-6.9,5.16-10.31,3.52-6.76,6.13-13.94,7.6-21.43s1.87-15.3,1.11-22.95c-.29-2.89-.82-5.74-1.28-8.61-.27-1.68-.34-4.14-1.39-5.56-.47-.63-1.36-.83-1.92-.18-.83.97.57,2.39,1.41,1.41Z"/>
    <path class="st0" d="M472.14,359.09c-2.13,9.23-4.25,18.45-6.38,27.68-1.06,4.61-2.15,9.22-3.19,13.84-.53,2.33-.64,6.53,2.72,6.65,1.63.06,2.9-1.18,3.87-2.34,1.29-1.55,2.54-3.14,3.74-4.77,2.37-3.22,4.45-6.72,5.51-10.61s1.17-8.33,2.17-12.42,3.69-7.39,5.06-11.35c2.47-7.14.27-15.56-5.28-20.64-.52-.47-1.52-.34-1.67.44-.97,4.88-2.75,9.5-5.29,13.77-.66,1.11,1.07,2.12,1.73,1.01,2.63-4.41,4.49-9.22,5.5-14.25l-1.67.44c4.56,4.18,6.65,10.76,5.3,16.8-.8,3.6-3.07,6.52-4.48,9.87s-1.8,7.14-2.32,10.8-1.4,7.18-3.23,10.47-4.1,6.18-6.46,9.02c-.76.92-2.64,2.84-3.35.87-.53-1.46.1-3.25.43-4.68l2.8-12.14c2.15-9.31,4.29-18.61,6.44-27.92.29-1.25-1.64-1.79-1.93-.53h0Z"/>
    <path class="st0" d="M320.44,260.7c-7.76,7.08-18.28,10.66-28.75,9.88l.96.73c-.72-5.27-1.43-10.54-2.15-15.8-.49-3.63-.89-7.32-.3-10.97.48-2.96,1.64-6.21,4.51-7.63,3.64-1.8,7.72.33,11.29,1.27,3.32.88,6.89.86,9.58-1.54,2.17-1.94,3.08-4.94,3.27-7.76.22-3.17-.46-6.44-1.86-9.29-1.83-3.72-4.5-6.95-6.58-10.52s-3.5-7.75-2.64-12.05,3.29-7.97,5.96-11.26c3.04-3.75,6.46-7.2,9.75-10.73s6.28-6.96,9.72-10.13c3.04-2.8,6.48-5.4,10.48-6.62,4.48-1.36,8.88-.4,13.25.88s8.79,2.59,13.46,2.15,9.03-2.13,13.17-4.2c14.36-7.22,28.21-18.49,34.87-33.45.81-1.83,1.52-3.7,2.11-5.62.38-1.23-1.55-1.76-1.93-.53-5,16.14-18.41,28.03-32.73,36.09-4.19,2.36-8.61,4.49-13.36,5.4s-9.37-.08-14.02-1.46c-4.23-1.25-8.51-2.44-12.95-1.74-3.99.63-7.59,2.66-10.75,5.11-3.45,2.68-6.41,5.89-9.37,9.08-3.48,3.74-7.01,7.45-10.44,11.24-5.47,6.07-11.08,13.68-9.07,22.34,1.8,7.76,8.94,13.02,10.6,20.76.64,2.98.59,6.46-.96,9.17-1.88,3.28-5.45,3.68-8.85,2.81-3.72-.95-7.52-2.86-11.43-1.74-2.95.84-4.96,3.16-6.06,5.94-1.22,3.09-1.42,6.58-1.26,9.86.22,4.54,1.09,9.08,1.7,13.58.36,2.63.72,5.27,1.07,7.9.06.45.57.7.96.73,10.99.82,22.03-3.05,30.16-10.46.95-.87-.46-2.28-1.41-1.41h0Z"/>
    <path class="st0" d="M322.35,261.48c4.74-6.27,12.61-8.37,20.12-8.71,8.79-.39,17.52,1.27,26.18,2.55,5.45.81,10.89,1.62,16.34,2.42s10.49,1.88,15.76,2.02c2.52.07,5.01-.23,7.45-.88s4.74-1.52,7.16-2.14c3.89-1,7.96-1.23,11.95-.76,8.07.94,15.84,4.76,21.37,10.72,2.57,2.77,4.68,7.68,9.26,5.8,2.1-.86,3.99-2.42,5.77-3.8s3.48-2.83,5.1-4.39c3.33-3.19,6.3-6.75,8.86-10.58s4.66-8.12,3.57-12.73c-1.01-4.24-4.4-7.43-5.42-11.66-.44-1.83-.5-4.01.69-5.58s3.13-1.89,4.94-1.41c4.59,1.23,6.04,5.95,6.58,10.15.57,4.48.82,8.93,2.3,13.24,1.33,3.86,3.49,7.55,6.82,10.01,3.02,2.24,6.96,3.43,10.71,2.91,1.84-.25,3.56-.93,5.06-2.04,1.02-.76.03-2.49-1.01-1.73-3.32,2.45-7.69,2.33-11.31.59-4-1.92-6.62-5.64-8.13-9.72-1.59-4.3-1.87-8.77-2.43-13.27-.51-4.1-1.63-8.39-5.26-10.81-2.88-1.93-7.08-2.32-9.55.49s-1.85,7.1-.43,10.27c1.9,4.23,5.54,7.91,4.59,12.91-.89,4.66-4.31,8.94-7.28,12.5s-6.35,6.81-10.06,9.61c-.89.67-1.79,1.32-2.72,1.94-1.11.75-2.56,1.82-3.98,1.47-1.08-.27-1.81-1.33-2.44-2.17s-1.19-1.6-1.84-2.36c-5.15-6.07-12.5-10.22-20.26-11.84-3.87-.81-7.86-1.01-11.79-.51-4.67.59-8.93,2.6-13.54,3.43-5.44.99-11.14-.33-16.53-1.13s-10.73-1.59-16.1-2.39c-9.04-1.34-18.16-3.16-27.33-3.22-7.36-.05-15.21,1.12-21.13,5.84-1.43,1.14-2.66,2.46-3.76,3.92-.78,1.03.96,2.02,1.73,1.01h0Z"/>
    <path class="st0" d="M322.18,135.24c.44,3.05.26,6.17-.52,9.15-.35,1.34-.8,2.68-1.42,3.92-.25.5-.52,1.04-.96,1.39-.71.56-1.25.02-1.96-.19-2.59-.77-3.31,2.32-3.97,4.11-.69,1.87-1.57,6.31-4.29,6.1-1.56-.12-1.23-1.62-1.02-2.75.31-1.6.62-3.21.93-4.81.61-3.13,1.23-6.25,1.89-9.36,1.1-5.16,1.94-10.83,4.51-15.51.69-1.26,4.71-6.95,6.04-4.23,1.42,2.9,1.32,6.39.18,9.35-.46,1.2,1.47,1.72,1.93.53,1.21-3.16,1.26-6.73.04-9.89-.46-1.2-1.04-2.47-2.43-2.75s-2.65.55-3.66,1.34c-4.99,3.9-6.33,10.71-7.65,16.55-.9,3.98-1.71,7.98-2.5,11.99-.35,1.76-.69,3.53-1.02,5.29-.29,1.5-.89,3.31-.03,4.74,1.3,2.17,4.45,1.75,6.02.18.99-.99,1.53-2.31,2.01-3.59.34-.88.65-1.78.98-2.66.25-.67.58-2.69,1.51-2.71.24,0,.77.35,1.01.42.4.12.79.16,1.21.11.6-.08,1.14-.36,1.59-.76,1.3-1.14,1.93-3.01,2.48-4.6,1.32-3.84,1.61-7.91,1.03-11.91-.18-1.27-2.11-.73-1.93.53h0Z"/>
    <path class="st0" d="M297.87,150.06c-.55,1.49-.82,3.1-.79,4.69.01.79.11,1.59.26,2.37.14.72.28,1.82.94,2.23,1.26.79,2.55-.04,3.3-1.1.84-1.19,1.02-2.7,1.32-4.1.42-1.92.84-3.85,1.26-5.77.14-.63-.29-1.26-.96-1.27-1.15,0-2.31-.02-3.46-.03-1.29-.01-1.29,1.99,0,2,1.15,0,2.31.02,3.46.03l-.96-1.27c-.48,2.19-.96,4.38-1.44,6.57-.18.83-.29,1.71-.72,2.46-.15.26-.34.52-.55.69-.1.08-.17.1-.19.1.11-.01,0-.03-.1-.09l.46.6c-.85-2.49-.81-5.12.1-7.59.19-.51-.21-1.1-.7-1.23-.56-.15-1.04.19-1.23.7h0Z"/>
    <path class="st0" d="M301.4,124.85c-6.12,4.69-10.34,11.55-11.62,19.18-.07.42.04.91.46,1.13,3.01,1.56,6.24.46,8.96-1.2s5.66-3.75,7.41-6.43c1.55-2.37,1.99-5.79.16-8.14-.41-.52-1.23-1.01-1.28-1.7-.06-.77.63-1.6.71-2.4.12-1.2-.37-2.41-1.6-2.74s-1.77,1.59-.53,1.93c.58.16-.49,2.5-.53,2.89-.16,1.29.51,2.04,1.35,2.89,1.78,1.81,1.14,4.67-.19,6.54-1.47,2.08-3.81,3.7-5.92,5.08s-5,2.88-7.53,1.57l.46,1.13c1.18-7.08,4.99-13.6,10.7-17.98,1.01-.77.01-2.51-1.01-1.73h0Z"/>
    <path class="st0" d="M313.68,111.31c-1.19,2.35-2.03,4.86-2.46,7.46-.14.86.65,1.55,1.47,1.13,1.13-.57,2.21-1.24,3.22-2,.95-.71,2-1.54,2.31-2.75.28-1.09-.17-2.19-1.21-2.67s-2.26-.18-2.71.97c-.2.5.22,1.1.7,1.23.57.16,1.03-.19,1.23-.7-.04.1-.13.21-.2.23-.08.03-.08.03,0,0h-.14c.07.01.13.01.2.01-.11,0-.17-.03-.02,0,.07.02.18.1,0-.01.05.03.11.07.16.09.09.03-.11-.12,0,0,.03.03.21.21.04.02.02.03.11.21.05.07s0,.05.01.09c-.04-.22-.02.1-.03.13.02-.14-.03.04-.04.09-.02.06-.02.07,0,0l-.05.1c-.05.1-.11.19-.17.28l-.06.09s.03-.04-.02.02c-.52.61-1.21,1.09-1.87,1.54-.78.53-1.59,1-2.42,1.43l1.47,1.13c.4-2.43,1.15-4.79,2.25-6.98.24-.48.13-1.08-.36-1.37-.44-.26-1.12-.13-1.37.36h0Z"/>
    <path class="st0" d="M81.16,301.15c18.01,6.96,29.49,23.71,44.31,35.22,3.66,2.84,7.54,5.42,11.72,7.44,5.06,2.44,10.46,4.04,15.75,5.92s10.41,4.2,14.84,7.72c4.12,3.28,7.62,7.33,10.38,11.81,1.29,2.09,2.25,4.42,3.77,6.36.6.76,1.3,1.48,2.15,1.95.96.53,2.05.46,2.97.99,5.18,2.99,10.22,6.26,15.27,9.46,8.39,5.32,16.72,11.08,23.3,18.59,3.16,3.61,5.87,7.65,7.76,12.08,2.24,5.25,3.1,10.9,3.34,16.57s-.09,11.85.03,17.78c.06,2.96.25,5.91.67,8.84s1.28,5.7,1.92,8.57c.37,1.64.57,3.33.16,4.98-.35,1.38-1.06,2.63-1.71,3.88-1.1,2.14-1.89,4.31-1.97,6.74-.16,4.95,2.29,9.63,5.39,13.33,6.11,7.28,15.38,9.61,23.21,14.43,1.71,1.05,3.32,2.23,4.68,3.71.87.95,2.29-.47,1.41-1.41-2.94-3.19-6.98-5.22-10.82-7.1-4.06-1.99-8.32-3.74-12.04-6.34-4.03-2.82-7.56-7.08-9.09-11.79-.79-2.42-1.01-5.01-.33-7.47s2.35-4.58,3.1-7.05c.88-2.92.13-5.9-.65-8.76-.81-3-1.38-6.03-1.65-9.13-.52-5.91-.23-11.84-.22-17.76s-.23-11.67-1.71-17.31c-1.24-4.73-3.39-9.21-6.17-13.23-5.57-8.06-13.33-14.31-21.36-19.79-4.28-2.92-8.69-5.63-13.1-8.36-2.8-1.73-5.61-3.46-8.41-5.2-.53-.33-.89-.59-1.51-.65-.54-.05-.97-.08-1.46-.34-1.09-.59-1.86-1.73-2.48-2.76-1.31-2.16-2.39-4.42-3.81-6.52s-3.1-4.26-4.9-6.17c-3.58-3.83-7.82-7.01-12.52-9.33-5.06-2.49-10.48-4.09-15.78-5.98-4.97-1.76-9.68-3.93-14.09-6.83-15.89-10.45-26.82-27.17-43.72-36.25-1.97-1.06-4-1.98-6.09-2.79-1.2-.46-1.72,1.47-.53,1.93h0Z"/>
    <path class="st0" d="M111.32,192.23c14.53-6.94,29.41-13.11,44.6-18.45,3.82-1.34,7.65-2.63,11.5-3.87s7.49-2.57,11.35-3.26c4.11-.74,7.82.2,11.61,1.79,3.36,1.41,6.65,2.82,10.21,3.66,13.11,3.12,27.76.11,36.69-10.5,3.97-4.71,6.61-10.53,7.04-16.71.26-3.75-.43-7.48-1.07-11.16s-1.03-7.02-.72-10.62c1.16-13.64,9.87-26.06,19.52-35.24,1.18-1.13,2.4-2.21,3.65-3.26.98-.83-.44-2.24-1.41-1.41-10.1,8.52-18.99,19.86-22.49,32.78-.85,3.13-1.35,6.38-1.39,9.63-.04,3.57.65,7.06,1.25,10.56s1.03,7.34.39,11.01c-.55,3.12-1.67,6.1-3.25,8.83-3.16,5.46-8.07,9.85-13.84,12.41-6.64,2.94-14.22,3.53-21.34,2.27-3.59-.64-7.04-1.76-10.39-3.2s-6.81-2.99-10.55-3.14-7.61,1.07-11.24,2.2-7.56,2.4-11.32,3.67c-15.11,5.13-29.94,11.06-44.42,17.75-1.8.83-3.59,1.68-5.38,2.53-1.16.55-.15,2.28,1.01,1.73h0Z"/>
  </g>
  <g id="Layer_2">
    <g>
      <path class="st1" d="M155.32,179.23c10.92,3.64,24.34-.88,39.91-13.42-1.05-9.69-3.6-18.16-7.61-24.6-3.96-6.35-9-10.19-15-11.42-1.36-.28-2.75-.42-4.15-.42-11.48,0-23.88,9.23-34.09,24.15.95,3.32,6.64,20.92,20.94,25.7Z"/>
      <path d="M418.23,183.17c-2.98,0-5.84-.46-8.57-1.37-13.66-4.57-19.91-19.13-22-25.34-6.46,10.18-11.91,22.67-15.5,36.51-6.84,26.44-5.35,52.08,3.91,66.93,3.96,6.35,9,10.19,14.99,11.42,1.36.28,2.75.42,4.15.42,19.69,0,42.09-27.13,51.53-63.6,3.55-13.71,4.84-27.18,3.98-39.07-12.01,9.38-22.9,14.1-32.5,14.1Z"/>
      <path d="M163.01,183.17c-2.98,0-5.84-.46-8.57-1.37-13.65-4.57-19.91-19.13-22-25.34-6.46,10.18-11.91,22.67-15.49,36.51-6.85,26.44-5.35,52.09,3.9,66.93,3.96,6.35,9,10.19,15,11.42,1.36.28,2.75.42,4.15.42,19.69,0,42.09-27.13,51.53-63.6,3.55-13.71,4.84-27.19,3.98-39.07-12.01,9.38-22.9,14.1-32.5,14.1Z"/>
      <path class="st1" d="M410.53,179.23c10.91,3.64,24.34-.88,39.91-13.42-1.05-9.69-3.6-18.16-7.61-24.6-3.96-6.35-9-10.19-14.99-11.42-1.37-.28-2.75-.42-4.15-.42-11.48,0-23.88,9.23-34.09,24.15.95,3.32,6.64,20.92,20.94,25.7Z"/>
      <path d="M173.17,127.13c-22-4.52-48.39,24.72-58.86,65.17-7.03,27.14-5.4,53.6,4.23,69.05,4.31,6.91,10.1,11.28,16.76,12.64,1.5.31,3.03.46,4.57.46,20.96,0,44.54-27.95,54.29-65.63,7.03-27.14,5.4-53.6-4.23-69.05-4.31-6.91-10.1-11.28-16.76-12.64ZM168.48,129.38c1.4,0,2.79.14,4.15.42,5.99,1.23,11.04,5.07,15,11.42,4.01,6.44,6.56,14.91,7.61,24.6-15.57,12.54-28.99,17.06-39.91,13.42-14.3-4.77-19.98-22.38-20.94-25.7,10.22-14.92,22.61-24.15,34.09-24.15ZM191.53,208.14c-9.44,36.47-31.84,63.6-51.53,63.6-1.4,0-2.78-.14-4.15-.42-5.99-1.23-11.04-5.07-15-11.42-9.25-14.84-10.75-40.48-3.9-66.93,3.58-13.84,9.04-26.33,15.49-36.51,2.1,6.21,8.35,20.77,22,25.34,2.73.91,5.59,1.37,8.57,1.37,9.59,0,20.48-4.72,32.5-14.1.85,11.88-.43,25.36-3.98,39.07Z"/>
      <path d="M428.39,127.13c-21.99-4.52-48.39,24.72-58.86,65.17-7.03,27.14-5.4,53.6,4.23,69.05,4.31,6.91,10.1,11.28,16.76,12.64,1.5.31,3.03.46,4.57.46,20.96,0,44.54-27.95,54.29-65.63,7.03-27.14,5.4-53.6-4.23-69.05-4.31-6.91-10.1-11.28-16.76-12.64ZM423.69,129.38c1.4,0,2.78.14,4.15.42,5.99,1.23,11.04,5.07,14.99,11.42,4.01,6.44,6.56,14.91,7.61,24.6-15.57,12.54-29,17.06-39.91,13.42-14.3-4.77-19.98-22.38-20.94-25.7,10.22-14.92,22.61-24.15,34.09-24.15ZM446.74,208.14c-9.44,36.47-31.84,63.6-51.53,63.6-1.4,0-2.79-.14-4.15-.42-5.99-1.23-11.04-5.07-14.99-11.42-9.25-14.84-10.75-40.48-3.91-66.93,3.58-13.84,9.04-26.33,15.5-36.51,2.1,6.21,8.35,20.77,22,25.34,2.73.91,5.58,1.37,8.57,1.37,9.59,0,20.48-4.72,32.5-14.1.85,11.88-.43,25.36-3.98,39.07Z"/>
    </g>
    <path class="st4" d="M240.77,222.01s25.58,59.53,63.95,0"/>
  </g>
</svg>